<svg version="1.1" xmlns="http://www.w3.org/2000/svg" viewBox="0 0 604.6003149041908 160.20804378614275" width="1209.2006298083816" height="320.4160875722855">
  <!-- svg-source:excalidraw -->
  
  <defs>
    <style>
      @font-face {
        font-family: "Virgil";
        src: url("https://excalidraw.com/Virgil.woff2");
      }
      @font-face {
        font-family: "Cascadia";
        src: url("https://excalidraw.com/Cascadia.woff2");
      }
    </style>
  </defs>
  <g stroke-linecap="round" transform="translate(54.140357787845005 30.6093372097896) rotate(0 55.04566861862952 32.944212073247854)"><path d="M0.38 -1.52 C34.25 2.29, 68.82 -0.65, 111.02 0.97 M0.34 0.71 C35.01 -0.43, 71.31 -1.55, 109.47 0.56 M110.31 0.27 C111.49 16.63, 112 36.71, 109.13 64.31 M109.57 0.55 C109.84 21.19, 108.92 41.02, 109.11 65.24 M111.77 65.03 C70.88 64.2, 28.19 67.85, 1.08 66.51 M110.61 64.99 C75.33 66.46, 40.09 64.79, 0.31 66.82 M-1.67 67.73 C1.32 43.79, 0.99 20.7, 0.92 0.78 M0.8 65.08 C0.66 44.78, -0.39 23.32, -0.45 -0.22" stroke="#000000" stroke-width="1" fill="none"></path></g><g stroke-linecap="round"><g transform="translate(53.06589674115389 38.70517364684042) rotate(0 54.87288457049442 0.15705075419964487)"><path d="M0.23 -0.91 C18.57 -0.63, 92.4 0.98, 110.86 1.01 M-1.12 1.23 C17 1.24, 91.32 -0.41, 109.88 -0.58" stroke="#000000" stroke-width="1" fill="none"></path></g></g><g stroke-linecap="round" transform="translate(58.00397216504075 34.2866028211381) rotate(0 2.1530152938278775 2.1530152938279343)"><path d="M3.54 0.5 C3.89 0.8, 4.19 1.32, 4.27 1.78 C4.35 2.23, 4.25 2.83, 4.02 3.23 C3.79 3.63, 3.32 4.02, 2.89 4.18 C2.46 4.33, 1.85 4.33, 1.42 4.18 C0.98 4.02, 0.52 3.63, 0.29 3.23 C0.06 2.83, -0.05 2.23, 0.03 1.78 C0.11 1.32, 0.42 0.8, 0.77 0.5 C1.12 0.21, 1.69 0, 2.15 0 C2.61 0, 3.18 0.21, 3.54 0.5" stroke="none" stroke-width="0" fill="#fa5252"></path><path d="M3.54 0.5 C3.89 0.8, 4.19 1.32, 4.27 1.78 C4.35 2.23, 4.25 2.83, 4.02 3.23 C3.79 3.63, 3.32 4.02, 2.89 4.18 C2.46 4.33, 1.85 4.33, 1.42 4.18 C0.98 4.02, 0.52 3.63, 0.29 3.23 C0.06 2.83, -0.05 2.23, 0.03 1.78 C0.11 1.32, 0.42 0.8, 0.77 0.5 C1.12 0.21, 1.69 0, 2.15 0 C2.61 0, 3.18 0.21, 3.54 0.5" stroke="#000000" stroke-width="1" fill="none"></path></g><g stroke-linecap="round" transform="translate(66.83881703924499 34.2866028211381) rotate(0 2.1530152938278775 2.1530152938279343)"><path d="M3.54 0.5 C3.89 0.8, 4.19 1.32, 4.27 1.78 C4.35 2.23, 4.25 2.83, 4.02 3.23 C3.79 3.63, 3.32 4.02, 2.89 4.18 C2.46 4.33, 1.85 4.33, 1.42 4.18 C0.98 4.02, 0.52 3.63, 0.29 3.23 C0.06 2.83, -0.05 2.23, 0.03 1.78 C0.11 1.32, 0.42 0.8, 0.77 0.5 C1.12 0.21, 1.69 0, 2.15 0 C2.61 0, 3.18 0.21, 3.54 0.5" stroke="none" stroke-width="0" fill="#fab005"></path><path d="M3.54 0.5 C3.89 0.8, 4.19 1.32, 4.27 1.78 C4.35 2.23, 4.25 2.83, 4.02 3.23 C3.79 3.63, 3.32 4.02, 2.89 4.18 C2.46 4.33, 1.85 4.33, 1.42 4.18 C0.98 4.02, 0.52 3.63, 0.29 3.23 C0.06 2.83, -0.05 2.23, 0.03 1.78 C0.11 1.32, 0.42 0.8, 0.77 0.5 C1.12 0.21, 1.69 0, 2.15 0 C2.61 0, 3.18 0.21, 3.54 0.5" stroke="#000000" stroke-width="1" fill="none"></path></g><g stroke-linecap="round" transform="translate(76.06167416115727 34.674615068847515) rotate(0 2.1530152938278775 2.1530152938279343)"><path d="M3.54 0.5 C3.89 0.8, 4.19 1.32, 4.27 1.78 C4.35 2.23, 4.25 2.83, 4.02 3.23 C3.79 3.63, 3.32 4.02, 2.89 4.18 C2.46 4.33, 1.85 4.33, 1.42 4.18 C0.98 4.02, 0.52 3.63, 0.29 3.23 C0.06 2.83, -0.05 2.23, 0.03 1.78 C0.11 1.32, 0.42 0.8, 0.77 0.5 C1.12 0.21, 1.69 0, 2.15 0 C2.61 0, 3.18 0.21, 3.54 0.5" stroke="none" stroke-width="0" fill="#40c057"></path><path d="M3.54 0.5 C3.89 0.8, 4.19 1.32, 4.27 1.78 C4.35 2.23, 4.25 2.83, 4.02 3.23 C3.79 3.63, 3.32 4.02, 2.89 4.18 C2.46 4.33, 1.85 4.33, 1.42 4.18 C0.98 4.02, 0.52 3.63, 0.29 3.23 C0.06 2.83, -0.05 2.23, 0.03 1.78 C0.11 1.32, 0.42 0.8, 0.77 0.5 C1.12 0.21, 1.69 0, 2.15 0 C2.61 0, 3.18 0.21, 3.54 0.5" stroke="#000000" stroke-width="1" fill="none"></path></g><g stroke-opacity="0.9" fill-opacity="0.9" stroke-linecap="round" transform="translate(89.85888759497152 48.493615300497595) rotate(0 18.38826696775584 18.38826696775584)"><path d="M25.75 1.12 C29.28 2.61, 34.44 8.14, 36.19 12.02 C37.95 15.91, 37.54 20.72, 36.26 24.42 C34.97 28.12, 31.77 32.15, 28.5 34.21 C25.23 36.28, 20.62 37.42, 16.65 36.81 C12.67 36.2, 7.3 33.59, 4.66 30.56 C2.02 27.53, 0.93 22.55, 0.83 18.64 C0.73 14.74, 1.95 10.29, 4.06 7.1 C6.18 3.92, 9.5 0.24, 13.52 -0.46 C17.54 -1.16, 25.29 1.97, 28.17 2.89 C31.06 3.81, 30.79 4.78, 30.84 5.08 M16.15 0.8 C19.64 -0.02, 25.34 1.75, 28.42 3.52 C31.5 5.29, 33.25 7.89, 34.62 11.42 C35.99 14.94, 38.06 20.59, 36.62 24.67 C35.19 28.75, 29.47 33.83, 26.01 35.89 C22.54 37.95, 19.39 38.26, 15.84 37.02 C12.28 35.79, 7.35 31.71, 4.68 28.5 C2 25.29, -0.21 21.36, -0.24 17.75 C-0.27 14.15, 1.71 9.81, 4.52 6.87 C7.33 3.92, 14.77 1.21, 16.61 0.08 C18.46 -1.05, 15.92 -0.32, 15.6 0.09" stroke="none" stroke-width="0" fill="#04aaf7"></path><path d="M21.76 1.12 C25.44 1.84, 31 5.01, 33.47 8.11 C35.95 11.21, 36.72 16.03, 36.6 19.7 C36.48 23.37, 35.55 27.21, 32.76 30.13 C29.98 33.05, 24.05 36.55, 19.91 37.21 C15.77 37.87, 11.09 36.34, 7.94 34.1 C4.79 31.86, 2.07 27.51, 1.02 23.78 C-0.03 20.05, 0.18 15.2, 1.64 11.71 C3.09 8.21, 5.85 4.69, 9.72 2.8 C13.59 0.92, 22.43 0.55, 24.86 0.37 C27.29 0.2, 24.7 1.36, 24.3 1.75 M14.91 -0.24 C18.4 -1.76, 23.43 -1.72, 26.63 0.27 C29.83 2.27, 32.32 7.87, 34.09 11.71 C35.87 15.55, 37.93 19.79, 37.27 23.31 C36.62 26.83, 33.39 30.82, 30.16 32.83 C26.93 34.84, 22.09 35.38, 17.91 35.37 C13.72 35.36, 7.91 35.25, 5.07 32.76 C2.23 30.27, 1.13 24.5, 0.88 20.42 C0.63 16.34, 1.52 11.44, 3.56 8.27 C5.6 5.1, 11.64 2.65, 13.11 1.4 C14.59 0.14, 11.99 0.77, 12.41 0.74" stroke="#000000" stroke-width="1" fill="none"></path></g><g stroke-linecap="round"><g transform="translate(115.59393709506594 63.33324291854046) rotate(0 -5.408873295957392 4.705744435854626)" fill-rule="evenodd"><path d="M-2.42 -0.87 L-4 -1.23 L-8.94 -6.27 L-10.81 -6.12 L-12.2 -4.62 L-13.28 1.17 L-12.13 4.93 L-17.42 6.78 L-17.92 8.96 L-17.23 10.87 L-13.08 10.62 L-9.91 7.29 L-5.54 14.51 L-3.71 15.81 L-2.78 14.77 L-5.68 3.26 L-3.73 2.26 L-1.23 2.87 L0.3 4.18 L5.53 4.18 L6.88 1.9 L6.87 -0.33 L1.21 0.08 L2.3 -5.83 L1.22 -6.26 L-0.3 -5.47 L-2.63 -1.67 L-2.42 -0.87" stroke="none" stroke-width="0" fill="#40c057" fill-rule="evenodd"></path><path d="M-2.42 -0.87 C-2.69 -0.93, -2.91 -0.33, -4 -1.23 C-5.09 -2.13, -7.58 -5.71, -8.94 -6.27 C-10.31 -6.84, -11.48 -5.86, -12.2 -4.62 C-12.92 -3.37, -13.29 -0.42, -13.28 1.17 C-13.27 2.76, -11.43 4, -12.13 4.93 C-12.82 5.86, -16.57 5.79, -17.42 6.78 C-18.28 7.77, -17.96 10.23, -17.23 10.87 C-16.51 11.51, -14.3 11.22, -13.08 10.62 C-11.86 10.02, -11.17 6.64, -9.91 7.29 C-8.65 7.93, -6.73 13.26, -5.54 14.51 C-4.35 15.76, -2.76 16.64, -2.78 14.77 C-2.8 12.89, -5.93 5.24, -5.68 3.26 C-5.42 1.28, -2.23 2.72, -1.23 2.87 C-0.23 3.02, -0.83 3.96, 0.3 4.18 C1.42 4.4, 4.43 4.93, 5.53 4.18 C6.62 3.43, 7.59 0.36, 6.87 -0.33 C6.16 -1.01, 1.97 1, 1.21 0.08 C0.45 -0.83, 2.55 -4.9, 2.3 -5.83 C2.05 -6.76, 0.53 -6.17, -0.3 -5.47 C-1.12 -4.78, -2.27 -2.43, -2.63 -1.67 C-2.98 -0.9, -2.46 -1, -2.42 -0.87 M-2.42 -0.87 C-2.69 -0.93, -2.91 -0.33, -4 -1.23 C-5.09 -2.13, -7.58 -5.71, -8.94 -6.27 C-10.31 -6.84, -11.48 -5.86, -12.2 -4.62 C-12.92 -3.37, -13.29 -0.42, -13.28 1.17 C-13.27 2.76, -11.43 4, -12.13 4.93 C-12.82 5.86, -16.57 5.79, -17.42 6.78 C-18.28 7.77, -17.96 10.23, -17.23 10.87 C-16.51 11.51, -14.3 11.22, -13.08 10.62 C-11.86 10.02, -11.17 6.64, -9.91 7.29 C-8.65 7.93, -6.73 13.26, -5.54 14.51 C-4.35 15.76, -2.76 16.64, -2.78 14.77 C-2.8 12.89, -5.93 5.24, -5.68 3.26 C-5.42 1.28, -2.23 2.72, -1.23 2.87 C-0.23 3.02, -0.83 3.96, 0.3 4.18 C1.42 4.4, 4.43 4.93, 5.53 4.18 C6.62 3.43, 7.59 0.36, 6.87 -0.33 C6.16 -1.01, 1.97 1, 1.21 0.08 C0.45 -0.83, 2.55 -4.9, 2.3 -5.83 C2.05 -6.76, 0.53 -6.17, -0.3 -5.47 C-1.12 -4.78, -2.27 -2.43, -2.63 -1.67 C-2.98 -0.9, -2.46 -1, -2.42 -0.87" stroke="#087f5b" stroke-width="1" fill="none"></path></g></g><g stroke-linecap="round"><g stroke-opacity="0.9" fill-opacity="0.9" transform="translate(90.61431263060342 65.73726259570685) rotate(0 17.93048352552239 -0.21962480843058074)"><path d="M0.56 0.58 C6.62 0.54, 30.4 -0.99, 36.47 -1.02 M-0.61 -0.16 C5.31 -0.02, 29.44 0.24, 35.64 -0.02" stroke="#000000" stroke-width="1" fill="none"></path></g></g><g stroke-linecap="round"><g stroke-opacity="0.9" fill-opacity="0.9" transform="translate(95.15701762568506 53.28931981323808) rotate(0 12.619752091701002 2.225478527489031)"><path d="M0 -0.04 C0.11 0.29, 0.08 1.32, 0.66 1.92 C1.25 2.52, 2.42 3.13, 3.53 3.57 C4.65 4.01, 5.72 4.38, 7.35 4.56 C8.98 4.74, 11.17 4.74, 13.33 4.65 C15.49 4.56, 18.46 4.51, 20.3 4.02 C22.14 3.53, 23.55 2.43, 24.38 1.71 C25.2 1, 25.1 0.07, 25.24 -0.26 M0 -0.04 C0.11 0.29, 0.08 1.32, 0.66 1.92 C1.25 2.52, 2.42 3.13, 3.53 3.57 C4.65 4.01, 5.72 4.38, 7.35 4.56 C8.98 4.74, 11.17 4.74, 13.33 4.65 C15.49 4.56, 18.46 4.51, 20.3 4.02 C22.14 3.53, 23.55 2.43, 24.38 1.71 C25.2 1, 25.1 0.07, 25.24 -0.26" stroke="#000000" stroke-width="1" fill="none"></path></g></g><g stroke-opacity="0.9" fill-opacity="0.9" stroke-linecap="round" transform="translate(102.1076083372991 47.3034372391287) rotate(0 6.683980400448377 19.293084790965622)"><path d="M8.59 1.19 C10.02 1.9, 12.66 4.62, 13.34 8.17 C14.02 11.72, 13.1 18.21, 12.68 22.5 C12.26 26.8, 11.73 31.25, 10.81 33.94 C9.89 36.64, 8.52 38.49, 7.17 38.68 C5.82 38.87, 3.95 37.52, 2.72 35.11 C1.48 32.69, -0.09 28.41, -0.26 24.18 C-0.42 19.96, 1.09 13.56, 1.7 9.79 C2.3 6.01, 2.3 2.91, 3.38 1.51 C4.45 0.11, 7.25 1.23, 8.15 1.4 C9.06 1.57, 8.64 2.13, 8.81 2.55 M3.83 1.83 C5.22 0.76, 8.81 0.37, 10.5 1.75 C12.18 3.12, 13.29 6.63, 13.93 10.09 C14.57 13.55, 14.94 18.16, 14.34 22.51 C13.74 26.87, 11.57 33.48, 10.36 36.23 C9.15 38.98, 8.42 39.43, 7.07 39.01 C5.72 38.59, 3.55 36.51, 2.28 33.71 C1.02 30.91, -0.1 26.43, -0.52 22.21 C-0.93 17.98, -1.37 12.14, -0.23 8.37 C0.9 4.59, 5.61 0.7, 6.28 -0.42 C6.95 -1.55, 3.79 1, 3.81 1.62" stroke="#000000" stroke-width="1" fill="none"></path></g><g stroke-linecap="round"><g stroke-opacity="0.9" fill-opacity="0.9" transform="translate(96.46205455960217 81.35692437845023) rotate(0 12.619752091701002 -3.1178332873470254)"><path d="M0 -0.78 C0.59 -1.4, 2.31 -3.71, 3.53 -4.5 C4.76 -5.29, 5.72 -5.34, 7.35 -5.53 C8.98 -5.72, 11.17 -5.72, 13.33 -5.63 C15.49 -5.53, 18.46 -5.48, 20.3 -4.97 C22.14 -4.46, 23.55 -3.33, 24.38 -2.59 C25.2 -1.85, 25.1 -0.89, 25.24 -0.55 M0 -0.78 C0.59 -1.4, 2.31 -3.71, 3.53 -4.5 C4.76 -5.29, 5.72 -5.34, 7.35 -5.53 C8.98 -5.72, 11.17 -5.72, 13.33 -5.63 C15.49 -5.53, 18.46 -5.48, 20.3 -4.97 C22.14 -4.46, 23.55 -3.33, 24.38 -2.59 C25.2 -1.85, 25.1 -0.89, 25.24 -0.55" stroke="#000000" stroke-width="1" fill="none"></path></g></g><g stroke-linecap="round" transform="translate(386.23456731805527 59.6421986616358) rotate(0 103.5574470012591 12.243244965666122)"><path d="M0.06 -1.71 C81.44 2.35, 163.65 0.45, 205.5 -1.77 M-0.81 -0.32 C60.52 -0.89, 120.86 -1.26, 206.86 0.43 M208.93 0.57 C206.3 7.72, 209.07 16.71, 206.74 24.67 M206.97 0.46 C206.31 6.44, 206.36 14.98, 206.91 24.91 M207.59 23.1 C157.9 24.31, 106.55 27.43, 1.28 24.1 M207.91 23.6 C164.97 26.1, 123.12 25.21, -0.7 23.77 M-0.26 26.2 C-0.01 14.18, -0.89 6.98, -0.08 0.15 M-0.57 24.04 C0.46 14.03, 0.66 5.56, -0.07 -0.99" stroke="#000000" stroke-width="1" fill="none"></path></g><g stroke-linecap="round"><g transform="translate(394.8648429720465 65.56072176456905) rotate(0 -0.6122093602969017 7.314586401192969)"><path d="M0.04 -1.15 C0.24 1.57, 0.03 13.17, 0.17 15.78 M-1.4 0.85 C-1.26 3.31, -1.01 11.71, -0.69 14.18" stroke="#000000" stroke-width="1" fill="none"></path></g></g><g stroke-linecap="round"><g transform="translate(401.8141220454113 65.2584087411476) rotate(0 -0.0823740988970485 7.4391544434963635)"><path d="M-1.15 0.17 C-0.89 2.78, 0.85 13.41, 0.99 15.66 M0.44 -0.78 C0.68 1.49, 0.84 11.46, 0.56 13.99" stroke="#000000" stroke-width="1" fill="none"></path></g></g><g stroke-linecap="round"><g transform="translate(408.4378039235271 65.06683971639427) rotate(0 -0.14690683158175943 8.173962299723712)"><path d="M0.17 0.99 C0.31 3.6, 1.08 12.4, 0.87 14.5 M-1.2 0.46 C-1.14 3.35, -0.03 13.58, 0.38 15.89" stroke="#000000" stroke-width="1" fill="none"></path></g></g><g stroke-linecap="round"><g transform="translate(414.30773360794 64.82760901956931) rotate(0 -0.19812966990900804 7.473613153148904)"><path d="M0.99 0.87 C1.13 3.12, 0.07 11.4, -0.29 13.7 M0.05 0.28 C0.11 2.63, -1.56 12.06, -1.39 14.67" stroke="#000000" stroke-width="1" fill="none"></path></g></g><g stroke-linecap="round"><g transform="translate(420.79967489739556 65.53480212033969) rotate(0 -0.018384075134463274 6.509958844084736)"><path d="M0.87 -0.29 C0.66 1.81, -0.93 10.93, -1.09 13.6 M-0.14 -1.49 C0 0.62, 1.18 11.95, 1.05 14.51" stroke="#000000" stroke-width="1" fill="none"></path></g></g><g stroke-linecap="round"><g transform="translate(427.54626594446745 65.12959944752242) rotate(0 0.26354585337810477 7.531686231994627)"><path d="M-0.29 -1.09 C-0.66 1.21, -1.4 11.95, -1.19 14.68 M1.75 0.95 C1.65 3.37, 1.07 14.12, 0.89 16.15" stroke="#000000" stroke-width="1" fill="none"></path></g></g><g stroke-linecap="round"><g transform="translate(434.1119582498077 64.73429759795158) rotate(0 -0.2936572410072813 7.269359636513968)"><path d="M-1.09 -1.19 C-1.25 1.48, -0.38 13.25, -0.12 15.73 M0.54 0.79 C0.13 3.17, -1.03 11.83, -1.13 14.1" stroke="#000000" stroke-width="1" fill="none"></path></g></g><g stroke-linecap="round"><g transform="translate(440.80978132393693 65.0554258738091) rotate(0 -0.12760086357593536 7.022207365983604)"><path d="M-1.19 -0.12 C-0.99 2.61, 0.92 12.85, 0.94 15.27 M0.38 -1.22 C0.54 1.23, 0.34 10.61, 0.48 13.39" stroke="#000000" stroke-width="1" fill="none"></path></g></g><g stroke-linecap="round"><g transform="translate(447.25253208262666 64.7459453642416) rotate(0 -0.5800137906862801 7.5196992014838315)"><path d="M-0.12 0.94 C0.14 3.42, 0.53 11.3, 0.47 13.69 M-1.64 0.39 C-1.4 3.08, -0.26 12.51, -0.22 14.65" stroke="#000000" stroke-width="1" fill="none"></path></g></g><g stroke-linecap="round"><g transform="translate(453.26725018729803 64.31107123494598) rotate(0 -0.032331404308706624 7.679598014999669)"><path d="M0.94 0.47 C0.95 2.89, -1.03 12.02, -1.1 14.37 M-0.03 -0.32 C0.45 2.27, 1.02 13, 1.03 15.68" stroke="#000000" stroke-width="1" fill="none"></path></g></g><g stroke-linecap="round"><g transform="translate(473.0190853386016 64.81221696420494) rotate(0 -0.561786378468355 7.116536951272337)"><path d="M0.47 -1.1 C0.42 1.3, -0.31 12.54, -0.43 15.33 M-0.74 0.94 C-0.97 2.9, -1.54 11.36, -1.6 13.49" stroke="#000000" stroke-width="1" fill="none"></path></g></g><g stroke-linecap="round"><g transform="translate(459.76270334559285 65.3152187846456) rotate(0 -0.28042354881756637 7.147055564571701)"><path d="M-1.1 -0.43 C-1.17 1.92, 0.21 12.15, 0.54 14.57 M0.52 -1.7 C0.26 0.8, -0.13 13.21, -0.13 15.99" stroke="#000000" stroke-width="1" fill="none"></path></g></g><g stroke-linecap="round"><g transform="translate(479.6508430283384 64.54391141861538) rotate(0 0.13059231505735625 7.70787602780149)"><path d="M-0.43 0.54 C-0.54 3.33, -0.17 13.32, -0.22 15.64 M1.55 -0.22 C1.22 2.33, -1.33 11.32, -1.29 13.96" stroke="#000000" stroke-width="1" fill="none"></path></g></g><g stroke-linecap="round"><g transform="translate(466.59952839655716 64.35711625492718) rotate(0 0.13391911597420858 6.920485785652431)"><path d="M0.54 -0.22 C0.86 2.19, 0.99 11.47, 0.85 14.07 M-0.64 -1.39 C-0.3 1.21, 0.45 12.78, 0.34 15.23" stroke="#000000" stroke-width="1" fill="none"></path></g></g><g stroke-linecap="round"><g transform="translate(486.0372095266639 65.06507479089328) rotate(0 -0.09597746386191375 8.028802420992974)"><path d="M-0.22 0.85 C-0.27 3.17, -0.86 12.1, -0.72 14.45 M-1.8 0.24 C-1.42 2.69, 1.29 13.13, 1.61 15.81" stroke="#000000" stroke-width="1" fill="none"></path></g></g><g stroke-linecap="round"><g transform="translate(502.7548729881314 67.11718933515044) rotate(0 25.50734024507676 0.13414643987084673)"><path d="M0.85 -0.72 C9.29 -0.59, 42.71 0.46, 51.18 0.58 M-0.17 1.51 C8.04 1.31, 41.53 -1.21, 50.06 -1.24" stroke="#000000" stroke-width="1" fill="none"></path></g></g><g stroke-linecap="round"><g transform="translate(503.3610007546613 79.4044721630105) rotate(0 25.767526484868768 -2.760288000026776)"><path d="M-0.17 0.28 C0.03 -1.67, 0.03 -2.78, 0.12 -6.13 M-0.06 0.03 C-0.09 -1.95, -0.21 -3.6, 0.09 -6.09 M-0.47 -5.05 C10.15 -7.07, 24.41 -5.52, 49.91 -5.25 M0.67 -6.11 C9.59 -5.49, 21.69 -5.32, 50.48 -5.37 M50.99 -6.15 C52.12 -2.88, 51.52 -1.28, 52 0.53 M51.47 -5.63 C51.76 -3.91, 51.62 -2.52, 51.34 0.63" stroke="#000000" stroke-width="1" fill="none"></path></g></g><g stroke-linecap="round" transform="translate(570.2078732983541 66.04207671187055) rotate(0 6.492629906035063 6.492629906035063)"><path d="M7.86 0.3 C9.12 0.29, 9.59 0.81, 10.6 1.84 C11.61 2.87, 13.75 5.09, 13.93 6.48 C14.11 7.88, 12.64 9.27, 11.69 10.22 C10.74 11.16, 9.61 11.82, 8.23 12.16 C6.85 12.5, 4.61 12.86, 3.43 12.27 C2.24 11.69, 1.79 10, 1.12 8.67 C0.45 7.34, -0.94 5.57, -0.59 4.3 C-0.24 3.03, 1.7 1.82, 3.2 1.03 C4.71 0.24, 7.56 -0.5, 8.45 -0.42 C9.33 -0.35, 8.58 1.39, 8.53 1.46 M8.38 1.11 C9.88 1.12, 9.87 -0.42, 10.82 0.54 C11.78 1.5, 13.74 5.5, 14.12 6.88 C14.5 8.25, 14.02 7.65, 13.09 8.8 C12.15 9.94, 9.86 13.25, 8.51 13.75 C7.17 14.25, 6.54 12.75, 5.02 11.79 C3.49 10.82, -0.07 8.9, -0.62 7.94 C-1.17 6.99, 1.12 7.23, 1.7 6.06 C2.27 4.89, 1.7 1.9, 2.83 0.92 C3.95 -0.06, 7.79 0.4, 8.44 0.19 C9.08 -0.02, 6.68 -0.41, 6.7 -0.34" stroke="#000000" stroke-width="1" fill="none"></path></g><g stroke-linecap="round" transform="translate(386.7447025249621 84.6388237998724) rotate(0 103.5574470012591 12.243244965666122)"><path d="M0.25 -0.03 C49.95 0.73, 99.81 -1.6, 207.14 1.74 M-0.04 -0.51 C75.57 -0.3, 152.31 -0.76, 206.42 -0.55 M205.9 -0.96 C208.69 9.16, 205.5 17.67, 205.22 22.89 M206.16 0.77 C207.86 10.23, 206.29 18.97, 207.76 25.39 M208.83 26.07 C152.55 22.78, 99.56 23.19, -0.52 23.89 M207.98 24.76 C125.57 24.13, 42.67 25.11, -0.64 25.14 M-0.87 25.37 C-1.23 15.67, 0.29 5.43, 0.8 -0.8 M0.98 24.93 C-0.62 19.3, 0.41 13.08, -0.48 -0.49" stroke="#000000" stroke-width="1" fill="none"></path></g><g stroke-linecap="round"><g transform="translate(395.9463199734437 90.27954700424584) rotate(0 -0.49511540880041593 7.401952394002592)"><path d="M0.17 -0.02 C0.26 2.53, 0.17 13.49, 0.2 15.88 M-1.2 -1.08 C-1.22 1.11, -0.8 11.59, -0.64 14.33" stroke="#000000" stroke-width="1" fill="none"></path></g></g><g stroke-linecap="round"><g transform="translate(402.58812986738485 89.96093789376414) rotate(0 -0.20177549808749973 7.201892317512602)"><path d="M-0.02 0.2 C0.06 2.7, 1.17 12.7, 1.09 15.14 M-1.49 -0.74 C-1.52 1.37, 0.71 10.38, 0.71 13.2" stroke="#000000" stroke-width="1" fill="none"></path></g></g><g stroke-linecap="round"><g transform="translate(409.13686257240124 89.97906326122416) rotate(0 -0.4041975356662988 8.103532994438524)"><path d="M0.2 1.09 C0.23 3.48, 0.38 11.83, 0.34 14.31 M-1.15 0.61 C-1.26 3.17, -0.49 13.32, -0.42 15.59" stroke="#000000" stroke-width="1" fill="none"></path></g></g><g stroke-linecap="round"><g transform="translate(414.73346722143424 90.19652201952181) rotate(0 -0.299069090927901 7.920617730517392)"><path d="M1.09 0.34 C1.01 2.78, -0.5 12.27, -0.48 14.81 M0.2 -0.52 C-0.07 2.1, -1.82 14, -1.69 16.36" stroke="#000000" stroke-width="1" fill="none"></path></g></g><g stroke-linecap="round"><g transform="translate(421.62486795549694 90.23353719463216) rotate(0 -0.37223350777753694 7.09132856463782)"><path d="M0.34 -0.48 C0.31 2, -0.06 13.46, 0.02 15.97 M-0.93 -1.78 C-1.14 0.91, -1.15 11.53, -0.92 14.46" stroke="#000000" stroke-width="1" fill="none"></path></g></g><g stroke-linecap="round"><g transform="translate(427.7413213274117 90.48907290241209) rotate(0 0.4890454223798315 7.289025050380815)"><path d="M-0.48 0.02 C-0.47 2.56, 1.13 13.11, 1.17 15.59 M1.46 -1.02 C1.33 1.16, 1.27 11.01, 0.84 13.89" stroke="#000000" stroke-width="1" fill="none"></path></g></g><g stroke-linecap="round"><g transform="translate(434.34248494603844 88.94014283393176) rotate(0 -0.31470284170939067 8.365809620071673)"><path d="M0.02 1.17 C0.1 3.68, 0.79 12.31, 0.8 14.57 M-1.43 0.74 C-1.47 3.48, 0.13 13.44, 0.27 15.99" stroke="#000000" stroke-width="1" fill="none"></path></g></g><g stroke-linecap="round"><g transform="translate(440.74171682441056 89.75454690492938) rotate(0 -0.05895607336890407 8.335613672633258)"><path d="M1.17 0.8 C1.22 3.28, -0.02 12.68, -0.22 14.9 M0.33 0.17 C0.24 2.87, -1.09 14.02, -1.29 16.5" stroke="#000000" stroke-width="1" fill="none"></path></g></g><g stroke-linecap="round"><g transform="translate(447.6677393138193 89.12782110171906) rotate(0 0.008647052426795199 7.4270348698389625)"><path d="M0.8 -0.22 C0.82 2.04, 0.36 12.32, 0.11 14.74 M-0.24 -1.39 C-0.37 1.58, -0.52 13.45, -0.78 16.24" stroke="#000000" stroke-width="1" fill="none"></path></g></g><g stroke-linecap="round"><g transform="translate(453.88457630863695 89.11238982409918) rotate(0 -0.9822560819186492 7.199645190138767)"><path d="M-0.22 0.11 C-0.43 2.33, -0.01 11.69, -0.06 14.1 M-1.8 -0.88 C-2.27 1.41, -1.08 12.49, -1.04 15.28" stroke="#000000" stroke-width="1" fill="none"></path></g></g><g stroke-linecap="round"><g transform="translate(473.3057996951634 90.07772719549689) rotate(0 0.18318194062442217 7.212416384865151)"><path d="M0.11 -0.06 C-0.14 2.36, -0.64 11.72, -0.69 14.29 M-1.29 -1.13 C-1.22 1.46, 1.62 13.15, 1.66 15.56" stroke="#000000" stroke-width="1" fill="none"></path></g></g><g stroke-linecap="round"><g transform="translate(460.1589722810345 90.08842307253622) rotate(0 -0.9522401417990523 7.684557368883361)"><path d="M-0.06 -0.69 C-0.11 1.73, -0.61 12.17, -0.51 14.62 M-1.55 1.56 C-1.78 4.16, -1.99 13.84, -1.72 16.06" stroke="#000000" stroke-width="1" fill="none"></path></g></g><g stroke-linecap="round"><g transform="translate(480.0149108644782 90.17259456612805) rotate(0 -0.03570623486302793 6.7664796791016215)"><path d="M-0.69 -0.51 C-0.74 2.06, -0.16 12.96, -0.18 15.35 M1.15 -1.82 C0.92 0.4, -1.31 10.77, -1.22 13.52" stroke="#000000" stroke-width="1" fill="none"></path></g></g><g stroke-linecap="round"><g transform="translate(466.75821349901526 89.57008658869358) rotate(0 0.4613584020780763 6.897535571951948)"><path d="M-0.51 -0.18 C-0.4 2.27, 0.63 11.62, 0.56 14 M1.43 -1.32 C1.43 1.32, -0.1 12.4, -0.1 15.11" stroke="#000000" stroke-width="1" fill="none"></path></g></g><g stroke-linecap="round"><g transform="translate(486.561113797693 89.09495692275254) rotate(0 -0.11892767756239664 7.349036882568726)"><path d="M-0.18 0.56 C-0.2 2.95, -0.7 11.37, -0.8 13.85 M-1.73 -0.2 C-1.31 2.36, 0.91 12.63, 1.49 14.89" stroke="#000000" stroke-width="1" fill="none"></path></g></g><g stroke-linecap="round"><g transform="translate(503.12302209094287 91.99733427579235) rotate(0 26.09440158164341 0.2756424605710208)"><path d="M0.56 -0.8 C9.07 -0.89, 41.98 -0.83, 50.58 -0.74 M-0.61 1.4 C8.32 1.46, 44.08 0.48, 52.8 0.41" stroke="#000000" stroke-width="1" fill="none"></path></g></g><g stroke-linecap="round"><g transform="translate(503.87707944476324 104.6533541938868) rotate(0 26.400970163653483 -2.978371537840758)"><path d="M-0.46 -0.36 C0.27 -1.8, 0.19 -3.72, -0.33 -5.41 M-0.28 -0.24 C0.27 -1.71, -0.05 -4.13, 0.18 -5.72 M1.24 -4.08 C19.26 -7.53, 38.43 -3.92, 53.26 -5.69 M-0.34 -6.22 C15.69 -5.92, 29.59 -4.84, 51.78 -5.12 M51.04 -5.21 C51.78 -4.21, 50.84 -2.94, 51.75 0.08 M51.6 -5.78 C51.26 -3.9, 51.22 -1.78, 51.61 0.27" stroke="#000000" stroke-width="1" fill="none"></path></g></g><g stroke-linecap="round" transform="translate(570.7180085052496 91.03870185010578) rotate(0 6.492629906035063 6.492629906035063)"><path d="M7.57 -0.26 C9.04 -0.02, 11.86 1.78, 12.63 3.04 C13.4 4.29, 12.59 6.06, 12.18 7.27 C11.76 8.47, 10.85 9.22, 10.14 10.29 C9.42 11.36, 9.14 13.58, 7.87 13.68 C6.61 13.77, 3.69 11.68, 2.55 10.86 C1.4 10.03, 1.16 10.09, 0.99 8.74 C0.82 7.39, 0.99 3.99, 1.5 2.75 C2.01 1.5, 2.72 1.71, 4.04 1.25 C5.36 0.79, 8.78 0.21, 9.45 -0.03 C10.12 -0.28, 8.09 -0.53, 8.06 -0.22 M6.6 -0.44 C7.87 -0.51, 9.09 1.95, 10.13 2.93 C11.17 3.91, 12.24 4.23, 12.82 5.44 C13.4 6.64, 14.14 9.11, 13.6 10.16 C13.06 11.21, 11.22 11.19, 9.56 11.73 C7.9 12.27, 5.27 13.56, 3.65 13.42 C2.02 13.28, 0.27 12.24, -0.19 10.88 C-0.65 9.53, 0.74 6.97, 0.9 5.31 C1.06 3.64, -0.24 1.94, 0.8 0.9 C1.83 -0.14, 6.18 -0.84, 7.11 -0.93 C8.03 -1.03, 6.66 -0.03, 6.34 0.33" stroke="#000000" stroke-width="1" fill="none"></path></g><g stroke-linecap="round" transform="translate(386.7447025249621 109.1253137312035) rotate(0 103.5574470012591 12.243244965666122)"><path d="M0.93 -0.37 C49.1 0.06, 95.84 2.58, 207.59 -1.39 M0.72 0.64 C66.17 0.62, 133.42 1.97, 207.91 -0.89 M206.38 -1.58 C205.67 9.99, 209.06 16.08, 206.85 26.2 M208.08 -0.04 C207.12 8.57, 207.35 15.73, 206.55 24.04 M208.07 24.36 C132.05 25.07, 61.29 24.73, -0.13 24.72 M206.47 24.4 C162.01 24.62, 118.82 23.18, 0.34 24.83 M-0.96 24.15 C-0.35 18.93, -0.98 11.33, 1.73 0.32 M-0.41 25.35 C-0.56 15.13, 0.63 6.1, 0.55 -0.53" stroke="#000000" stroke-width="1" fill="none"></path></g><g stroke-linecap="round"><g transform="translate(395.67330596369857 114.68820400115624) rotate(0 0.12410919520129937 6.896251523394653)"><path d="M0.63 -0.25 C0.87 2.22, 0.71 11.4, 0.5 14.07 M-0.5 -1.43 C-0.29 1.24, 0.01 12.66, -0.18 15.22" stroke="#000000" stroke-width="1" fill="none"></path></g></g><g stroke-linecap="round"><g transform="translate(402.51029693296505 115.03505842197796) rotate(0 0.6209902361867989 7.58672897403369)"><path d="M-0.25 0.5 C-0.25 2.77, -0.93 11.78, -0.73 14.22 M1.82 -0.28 C2.27 2.09, 1.78 12.64, 1.6 15.45" stroke="#000000" stroke-width="1" fill="none"></path></g></g><g stroke-linecap="round"><g transform="translate(409.1813499680252 114.42983206198437) rotate(0 0.5702657245192313 7.522126150338522)"><path d="M0.5 -0.73 C0.3 1.94, -0.55 13.34, -0.58 15.77 M-0.69 1.5 C-0.54 3.88, 1.76 11.97, 1.83 14.16" stroke="#000000" stroke-width="1" fill="none"></path></g></g><g stroke-linecap="round"><g transform="translate(414.70362521084644 114.12194660308137) rotate(0 0.19184697931405026 7.2680636467622435)"><path d="M-0.73 -0.58 C-0.52 1.86, 1.01 12.51, 0.98 15.11 M1.09 1.73 C1.25 3.75, 0.48 10.7, 0.54 13.16" stroke="#000000" stroke-width="1" fill="none"></path></g></g><g stroke-linecap="round"><g transform="translate(421.3898141181335 115.1484225202737) rotate(0 0.3702457395243073 7.673360502619744)"><path d="M-0.58 0.98 C-0.61 3.41, 0.18 11.74, 0.32 13.86 M1.32 0.45 C1.11 3.06, -0.17 12.58, -0.46 14.9" stroke="#000000" stroke-width="1" fill="none"></path></g></g><g stroke-linecap="round"><g transform="translate(428.4478557473499 114.69271853092118) rotate(0 0.17156508602670328 7.241189611905838)"><path d="M0.98 0.32 C0.94 2.92, -0.59 12.79, -0.94 15.04 M0.03 -0.56 C0.43 1.71, 1.09 10.51, 1.28 13.05" stroke="#000000" stroke-width="1" fill="none"></path></g></g><g stroke-linecap="round"><g transform="translate(434.84217305754873 113.99713556072925) rotate(0 -0.277788581163918 6.831645289787616)"><path d="M0.32 -0.94 C0.46 1.18, 0.46 10.87, 0.25 13.66 M-0.97 1.18 C-0.92 3.32, -0.97 12.47, -0.57 14.6" stroke="#000000" stroke-width="1" fill="none"></path></g></g><g stroke-linecap="round"><g transform="translate(441.32521400375845 114.92935255632551) rotate(0 -0.1613294270557617 7.099566710640261)"><path d="M-0.94 0.25 C-1.29 2.5, -1.45 11.27, -1.13 13.84 M0.77 -0.67 C0.69 1.67, 0.99 12.46, 0.98 14.87" stroke="#000000" stroke-width="1" fill="none"></path></g></g><g stroke-linecap="round"><g transform="translate(448.08924851964184 114.20734965386714) rotate(0 0.08310346112580191 7.319099092690749)"><path d="M0.25 -1.13 C0.03 1.65, -1.06 13.16, -0.96 15.77 M-1.09 0.88 C-0.96 3.43, 0.98 11.69, 1.25 14.16" stroke="#000000" stroke-width="1" fill="none"></path></g></g><g stroke-linecap="round"><g transform="translate(453.5530984828547 114.40277743204365) rotate(0 -0.07786140739915481 7.348963934390326)"><path d="M-1.13 -0.96 C-0.81 1.61, 0.83 13.22, 0.98 15.66 M0.47 1.15 C0.8 3.37, 0.82 11.78, 0.54 13.99" stroke="#000000" stroke-width="1" fill="none"></path></g></g><g stroke-linecap="round"><g transform="translate(473.8861018137113 113.87005549129867) rotate(0 -0.04799656569957733 8.188481254477551)"><path d="M-0.96 0.98 C-0.85 3.59, 0.89 12.07, 0.86 14.53 M0.74 0.45 C0.74 3.34, 0.3 13.69, 0.37 15.93" stroke="#000000" stroke-width="1" fill="none"></path></g></g><g stroke-linecap="round"><g transform="translate(460.05013814142603 114.9978512948112) rotate(0 -0.18492280903285518 7.428078077484429)"><path d="M0.98 0.86 C1.12 3.3, -0.25 11.21, -0.26 13.65 M0.03 0.27 C0.1 2.89, -1.45 12.38, -1.35 14.59" stroke="#000000" stroke-width="1" fill="none"></path></g></g><g stroke-linecap="round"><g transform="translate(479.75913374469246 114.07998650583136) rotate(0 -0.08759701594249236 7.135229141691298)"><path d="M0.86 -0.26 C0.83 2.19, -1.11 13.03, -1.14 15.72 M-0.15 -1.45 C0.26 0.6, 0.9 11.49, 0.97 14.08" stroke="#000000" stroke-width="1" fill="none"></path></g></g><g stroke-linecap="round"><g transform="translate(466.55226494173166 113.59050974091838) rotate(0 0.7682814448373847 7.166731077639838)"><path d="M-0.26 -1.14 C-0.27 1.29, 0.7 13.02, 0.92 15.48 M1.8 0.87 C1.63 2.89, 0.62 11.48, 0.46 13.71" stroke="#000000" stroke-width="1" fill="none"></path></g></g><g stroke-linecap="round"><g transform="translate(486.29762314999107 113.93890367988456) rotate(0 -0.2302294224500656 8.11208711502843)"><path d="M-1.14 0.92 C-1.17 3.61, 0.69 13.49, 0.68 15.86 M0.46 0.36 C0.25 2.76, -0.01 12.2, 0.09 14.3" stroke="#000000" stroke-width="1" fill="none"></path></g></g><g stroke-linecap="round"><g transform="translate(503.4804789167456 116.6266240351822) rotate(0 26.270187171527482 -0.258426234126091)"><path d="M0.92 0.68 C9.73 0.67, 44.1 -1.21, 52.59 -1.2 M-0.05 0 C8.72 0.19, 43.65 -0.1, 52.2 -0.29" stroke="#000000" stroke-width="1" fill="none"></path></g></g><g stroke-linecap="round"><g transform="translate(503.10190562668686 128.67567891448584) rotate(0 25.28278446347076 -3.655554310069988)"><path d="M0.52 -0.59 C0.12 -0.83, 0.47 -2.63, -0.51 -6.36 M-0.04 0.25 C-0.04 -2.42, -0.19 -4.39, -0.06 -5.87 M-1.18 -6.78 C21.51 -7.52, 42.39 -4.9, 51.34 -7.64 M-0.12 -5.76 C12.32 -5.11, 26 -6.18, 51.38 -6.51 M51.71 -5.42 C51.34 -3.52, 51.21 -1.08, 51.38 0.32 M51.74 -5.61 C51.64 -3.33, 51.73 -1.43, 51.74 0.33" stroke="#000000" stroke-width="1" fill="none"></path></g></g><g stroke-linecap="round" transform="translate(570.7180085052496 115.5251917814387) rotate(0 6.492629906035063 6.492629906035063)"><path d="M7.06 -0.72 C8.14 -0.61, 9.4 1.97, 10.54 3.14 C11.67 4.31, 13.72 4.91, 13.88 6.28 C14.03 7.65, 12.45 10.32, 11.46 11.37 C10.46 12.41, 9.31 12.26, 7.92 12.56 C6.52 12.86, 4.33 13.77, 3.08 13.17 C1.83 12.57, 0.72 10.37, 0.42 8.97 C0.12 7.57, 0.77 6.19, 1.3 4.76 C1.83 3.33, 2.63 1.09, 3.61 0.4 C4.6 -0.28, 6.62 0.54, 7.21 0.64 C7.79 0.74, 6.98 1.01, 7.12 1.01 M2.47 0.67 C3.74 -0.36, 6.38 -1.35, 8 -1.16 C9.62 -0.96, 11.53 0.58, 12.18 1.86 C12.83 3.14, 12.24 4.79, 11.89 6.53 C11.54 8.26, 10.7 11.37, 10.06 12.27 C9.43 13.18, 9.17 11.9, 8.1 11.95 C7.04 12.01, 5.03 13.29, 3.67 12.6 C2.3 11.92, 0.58 9.35, -0.08 7.82 C-0.73 6.28, -0.81 4.62, -0.27 3.38 C0.27 2.15, 2.39 0.98, 3.16 0.43 C3.92 -0.12, 4.18 -0.3, 4.3 0.07" stroke="#000000" stroke-width="1" fill="none"></path></g><g stroke-linecap="round"><g transform="translate(386.02681872947915 59.09854740574906) rotate(0 20.91463762364242 -19.099905846928095)"><path d="M0.58 1.28 C15.65 -14.54, 26.47 -29.61, 41.73 -38 M0.1 -0.29 C11.6 -11.26, 23.77 -24.02, 40.77 -39.48" stroke="#000000" stroke-width="1" fill="none"></path></g></g><g stroke-linecap="round"><g transform="translate(593.315945271589 59.02556272014931) rotate(0 -19.099905846928095 -19.00634386605475)"><path d="M1.28 1.81 C-15.81 -16.95, -32.16 -28.91, -38 -39.82 M-0.29 -0.33 C-10.79 -11.41, -23.09 -21.81, -39.48 -39.25" stroke="#000000" stroke-width="1" fill="none"></path></g></g><g stroke-linecap="round"><g transform="translate(426.20670793872796 19.650244608619687) rotate(0 63.20721591313395 -0.07643292137822755)"><path d="M1.81 -0.73 C23.66 -2.26, 52.43 1.3, 126.18 0.54 M-0.33 0.96 C48.61 0.76, 98.27 1.3, 126.75 0.24" stroke="#000000" stroke-width="1" fill="none"></path></g></g><g stroke-linecap="round"><g transform="translate(203.1481278765043 74.85934468802202) rotate(0 88.44414559265022 0.19231974821332187)"><path d="M1.11 -1.06 C30.02 -1.07, 145.25 0.02, 174.29 0.32 M0.24 0.99 C29.46 1.09, 147.55 1.3, 176.65 1.45" stroke="#000000" stroke-width="1" fill="none"></path></g><g transform="translate(203.1481278765043 74.85934468802202) rotate(0 88.44414559265022 0.19231974821332187)"><path d="M27.6 -12.24 C17.59 -6.39, 7.79 -1.68, 0.11 -1.41 M29.85 -11.6 C21.07 -9.01, 13.35 -5.66, 1.79 -1.05" stroke="#000000" stroke-width="1" fill="none"></path></g><g transform="translate(203.1481278765043 74.85934468802202) rotate(0 88.44414559265022 0.19231974821332187)"><path d="M27.45 8.28 C17.43 6.49, 7.69 3.57, 0.11 -1.41 M29.69 8.92 C20.8 5.64, 13.12 3.13, 1.79 -1.05" stroke="#000000" stroke-width="1" fill="none"></path></g><g transform="translate(203.1481278765043 74.85934468802202) rotate(0 88.44414559265022 0.19231974821332187)"><path d="M146.65 10.49 C157.59 8.3, 168.81 5.48, 175.65 1.1 M148.9 11.13 C156.11 8.5, 164.54 6.07, 177.33 1.46" stroke="#000000" stroke-width="1" fill="none"></path></g><g transform="translate(203.1481278765043 74.85934468802202) rotate(0 88.44414559265022 0.19231974821332187)"><path d="M146.72 -10.03 C157.69 -4.59, 168.89 0.23, 175.65 1.1 M148.96 -9.39 C156.32 -6.15, 164.73 -2.71, 177.33 1.46" stroke="#000000" stroke-width="1" fill="none"></path></g></g><g stroke-linecap="round" transform="translate(36.957293058773985 20.84315698453497) rotate(0 73.64310785330088 42.017233315073554)"><path d="M-0.18 -1.3 C43.73 0.71, 83.09 1.18, 146.74 -1.65 M0.06 -0.83 C47.87 -0.05, 96.85 -1.28, 146.58 0.52 M146.54 -0.07 C148.41 17.79, 146.39 35.3, 145.48 83.83 M147.72 -0.64 C147.78 29.1, 147.77 57.06, 148.22 84.58 M145.72 85.22 C103.49 83.44, 63.3 82.38, 1.31 84.55 M147.99 83.87 C106.39 84.54, 66.13 85.04, 0.57 85.02 M-0.44 82.87 C-1.16 52.8, -0.94 19.41, -0.56 1.71 M0.47 84.42 C0.18 50.58, -0.04 17.6, 0.47 0.37" stroke="#000000" stroke-width="1" fill="none"></path></g><g stroke-linecap="round" transform="translate(28.824925320370312 10) rotate(0 81.77547559170227 51.956793884230706)"><path d="M-1.3 1.53 C53.08 -1.16, 106.79 -0.4, 161.9 0.52 M-0.83 -0.14 C40.72 0.74, 79.75 -0.81, 164.07 -0.87 M163.48 0.96 C162.46 32.16, 162.03 64.63, 163.34 104.71 M162.91 0.37 C163.78 32.97, 163.18 66.14, 164.1 103.81 M164.73 102.81 C108.35 104.04, 52.23 103.95, 0.52 103.47 M163.39 103.91 C104.56 105.7, 45.66 105.63, 0.99 104.75 M-1.17 102.43 C0.16 75.45, -1.03 48.96, 1.71 1.92 M0.39 103.39 C0.31 80.66, 0.61 59.35, 0.37 0.57" stroke="#000000" stroke-width="1" fill="none"></path></g><g stroke-linecap="round"><g transform="translate(37.40909126645931 121.89535610429903) rotate(0 4.297096094619064 -0.14427408490632843)"><path d="M0.65 -0.07 C1.47 0.18, 3.82 -0.64, 8.65 -0.45 M-0.06 0.19 C3.17 -0.26, 5.35 0.29, 8.07 0.08" stroke="#000000" stroke-width="4" fill="none"></path></g></g><g stroke-linecap="round"><g transform="translate(107.88961166594095 121.2929584940457) rotate(0 4.222740018804757 -0.09885465196316545)"><path d="M-0.07 -0.55 C2.58 -0.3, 4.22 0.15, 7.98 0.29 M0.19 0.35 C2.26 -0.29, 5.38 -0.35, 8.52 -0.39" stroke="#000000" stroke-width="4" fill="none"></path></g></g><g stroke-linecap="round"><g transform="translate(71.74575505082498 121.29295849404934) rotate(0 4.0871481303674955 -0.13943344530321156)"><path d="M-0.55 0.12 C1.75 -0.69, 4.18 -0.45, 8.72 0.05 M0.35 -0.33 C1.53 0.18, 3.3 0.04, 8.05 -0.16" stroke="#000000" stroke-width="4" fill="none"></path></g></g><g stroke-linecap="round"><g transform="translate(142.22627545030355 120.6905608837958) rotate(0 4.079413659574584 -0.2883919359385345)"><path d="M0.12 -0.23 C2.48 0.27, 5.9 0.35, 8.49 -0.7 M-0.33 -0.3 C2.63 -0.44, 4.91 -0.46, 8.28 -0.01" stroke="#000000" stroke-width="4" fill="none"></path></g></g><g stroke-linecap="round"><g transform="translate(54.878621963766705 121.89535610430107) rotate(0 4.060908804132566 -0.2376285329886514)"><path d="M-0.23 -0.7 C2.68 -0.47, 5.21 0.04, 7.73 -0.12 M-0.3 0.22 C2.55 0.15, 5.45 -0.09, 8.42 0.2" stroke="#000000" stroke-width="4" fill="none"></path></g></g><g stroke-linecap="round"><g transform="translate(125.35914236324265 121.29295849404639) rotate(0 3.970038189314323 0.01079668893737562)"><path d="M-0.7 0.22 C1.53 0.31, 4.01 -0.68, 8.32 0.39 M0.22 -0.36 C3.32 -0.33, 6.31 0.04, 8.64 -0.03" stroke="#000000" stroke-width="4" fill="none"></path></g></g><g stroke-linecap="round"><g transform="translate(89.21528574812896 121.29295849404753) rotate(0 4.227579960701007 0.12594677908634822)"><path d="M0.22 -0.45 C2.95 0.12, 4.61 -0.05, 8.82 0.71 M-0.36 0.08 C1.49 -0.2, 3.74 0.16, 8.4 -0.22" stroke="#000000" stroke-width="4" fill="none"></path></g></g><g stroke-linecap="round"><g transform="translate(159.69580614761617 120.69056088379352) rotate(0 4.342730050850037 -0.18114795130088623)"><path d="M-0.45 0.29 C2.35 -0.72, 4.48 0.36, 9.14 -0.65 M0.08 -0.39 C1.78 0.06, 4.07 0.04, 8.21 -0.12" stroke="#000000" stroke-width="4" fill="none"></path></g></g><g stroke-linecap="round"><g transform="translate(176.562939234665 121.2929584940473) rotate(0 3.9633304230358135 -0.20334275225832243)"><path d="M0.29 0.05 C1.13 -0.07, 4.05 0.75, 7.78 -0.59 M-0.39 -0.16 C2.96 0.19, 5.91 -0.24, 8.31 -0.38" stroke="#000000" stroke-width="4" fill="none"></path></g></g><g stroke-linecap="round"><g transform="translate(46.44505542024149 130.9313202580754) rotate(0 3.9476286998886394 -0.1292788419976887)"><path d="M0.05 -0.7 C2.63 0.36, 6.2 -0.68, 7.84 0.44 M-0.16 -0.01 C2 0.05, 3.38 -0.04, 8.05 -0.04" stroke="#000000" stroke-width="4" fill="none"></path></g></g><g stroke-linecap="round"><g transform="translate(31.385115163942032 130.93132025807972) rotate(0 4.087504429765829 -0.26365784277084003)"><path d="M-0.7 -0.12 C2.46 0.7, 3.5 -0.6, 8.88 -0.73 M-0.01 0.2 C2.67 -0.19, 5.27 -0.35, 8.39 0.17" stroke="#000000" stroke-width="4" fill="none"></path></g></g><g stroke-linecap="round"><g transform="translate(116.92557581971687 130.32892264782618) rotate(0 4.242488144188542 0.15886822147081148)"><path d="M-0.12 0.39 C3.53 -0.58, 5.05 0.51, 7.7 0.17 M0.2 -0.03 C1.54 -0.12, 3.14 -0.04, 8.6 0.06" stroke="#000000" stroke-width="4" fill="none"></path></g></g><g stroke-linecap="round"><g transform="translate(80.78171920459681 130.32892264782822) rotate(0 4.284325716946682 -0.032925956401413714)"><path d="M0.39 0.71 C1.93 -0.58, 5.61 -0.72, 8.6 -0.77 M-0.03 -0.22 C2.09 -0.42, 4.38 0.13, 8.49 -0.13" stroke="#000000" stroke-width="4" fill="none"></path></g></g><g stroke-linecap="round"><g transform="translate(151.2622396040806 129.72652503757763) rotate(0 4.041555615368452 -0.23485802303775927)"><path d="M0.71 -0.65 C1.24 0.4, 2.93 0.13, 7.66 -0.32 M-0.22 -0.12 C2.12 -0.04, 5.17 0.06, 8.31 0.18" stroke="#000000" stroke-width="4" fill="none"></path></g></g><g stroke-linecap="round"><g transform="translate(63.91458611754547 130.93132025807859) rotate(0 3.9819252487258154 -0.3740056688804998)"><path d="M-0.65 -0.59 C2.86 -0.8, 4.99 -0.84, 8.12 -0.03 M-0.12 -0.38 C2.89 0.21, 5.93 -0.08, 8.62 -0.27" stroke="#000000" stroke-width="4" fill="none"></path></g></g><g stroke-linecap="round"><g transform="translate(134.3951065170295 130.3289226478273) rotate(0 3.905034336501444 0.19873884072694636)"><path d="M-0.59 0.44 C2.19 0.23, 5.06 -0.25, 8.4 0.41 M-0.38 -0.04 C2.64 0.08, 4.81 0.21, 8.16 0.16" stroke="#000000" stroke-width="4" fill="none"></path></g></g><g stroke-linecap="round"><g transform="translate(98.2512499019092 130.32892264782527) rotate(0 4.39728901356915 -0.24939933200209907)"><path d="M0.44 -0.73 C3.4 -0.71, 6.16 0.03, 8.84 -0.06 M-0.04 0.17 C2.14 -0.05, 4.35 -0.19, 8.59 0.23" stroke="#000000" stroke-width="4" fill="none"></path></g></g><g stroke-linecap="round"><g transform="translate(168.73177030138754 129.72652503757536) rotate(0 3.9673839397615893 -0.13993806530652364)"><path d="M-0.73 0.17 C1.1 -0.36, 3.72 0.36, 8.37 -0.45 M0.17 0.06 C2.16 0.19, 4.31 0.17, 8.66 0.16" stroke="#000000" stroke-width="4" fill="none"></path></g></g><g stroke-linecap="round"><g transform="translate(185.59890338843888 130.3289226478273) rotate(0 4.324081653637791 -0.36843215745716407)"><path d="M0.17 -0.77 C1.62 0.04, 4.28 0.01, 7.99 -0.24 M0.06 -0.13 C1.95 -0.3, 3.7 0.2, 8.59 -0.02" stroke="#000000" stroke-width="4" fill="none"></path></g></g><g stroke-linecap="round"><g transform="translate(55.48101957402275 139.96728441185678) rotate(0 3.820177043757951 -0.18357810465556668)"><path d="M-0.77 -0.32 C2.94 0.39, 5.88 -0.46, 8.19 -0.76 M-0.13 0.18 C2.17 0.15, 5.12 0.14, 8.41 0.39" stroke="#000000" stroke-width="4" fill="none"></path></g></g><g stroke-linecap="round"><g transform="translate(40.42107931772273 139.9672844118586) rotate(0 4.255283344814757 -0.019094927623427793)"><path d="M-0.32 -0.03 C2.21 0.02, 3.16 -0.17, 7.67 -0.09 M0.18 -0.27 C3.02 0.26, 5.89 0, 8.83 0.23" stroke="#000000" stroke-width="4" fill="none"></path></g></g><g stroke-linecap="round"><g transform="translate(160.29820375785903 138.76248919135537) rotate(0 4.197688344140147 0.03457604670438741)"><path d="M-0.03 0.41 C2.63 -0.41, 5.15 -0.73, 8.35 0.34 M-0.27 0.16 C2.88 0.12, 5.27 0.36, 8.66 -0.04" stroke="#000000" stroke-width="4" fill="none"></path></g></g><g stroke-linecap="round"><g transform="translate(81.64888751114017 141.0006631178528) rotate(0 31.82295064406526 -0.24084918890230256)"><path d="M0.96 -0.14 C11.98 -0.82, 24.26 -0.73, 63.27 -1.03 M0.37 0.55 C17.22 0, 34.63 0.24, 62.37 -0.94" stroke="#000000" stroke-width="4" fill="none"></path></g></g><g stroke-linecap="round"><g transform="translate(177.76773445516665 138.76248919135583) rotate(0 4.2635217724663335 -0.15036558221970608)"><path d="M-0.06 -0.45 C1.97 -0.8, 4.34 0.3, 8.55 -0.26 M0.23 0.16 C2.88 0.36, 6.03 -0.07, 8.59 -0.13" stroke="#000000" stroke-width="4" fill="none"></path></g></g><g stroke-linecap="round"><g transform="translate(12.720547557425562 136.99098351792054) rotate(0 103.63854554751128 -5.316449701541842)"><path d="M-0.94 10.68 C60.02 11.14, 123.95 11.57, 207.29 11.97 M0.33 11.15 C49.92 10.67, 98.09 10.51, 207.56 10.5 M209.23 9.98 C200.88 0.01, 190.69 -10.92, 184.48 -19.93 M208.47 12.09 C201.74 3.05, 195.34 -7.54, 185.13 -21.56 M183.07 -21.54 C143.82 -19.03, 106.34 -22.63, 18.02 -21.31 M183.6 -21.23 C128.8 -21.58, 72.89 -23.04, 18.12 -22.67 M19.9 -20.45 C12.85 -14.28, 12.17 -9.4, -1.96 11.28 M18.05 -21.46 C11.55 -11.3, 5.08 0.3, 0.49 11.47" stroke="#000000" stroke-width="1" fill="none"></path></g></g><g stroke-linecap="round" transform="translate(10 145.99126051437906) rotate(0 103.9135877684613 2.108391635881844)"><path d="M-0.51 -1.6 C72.14 1.68, 144.9 0.44, 208.6 -1.13 M-0.05 0.83 C70.61 -0.77, 140.58 -0.95, 207.13 0.52 M207.57 0.28 C207.93 0.94, 208.09 2.1, 208.12 4.15 M208.02 0.12 C208.05 1.44, 207.76 2.7, 207.78 4.09 M207.65 3.72 C162.41 4.76, 112.48 2.21, 0.83 4.9 M207.93 4.63 C156.65 3.37, 104.12 2.11, -0.38 3.41 M0.38 3.81 C0.21 3.48, -0.24 1.77, 0.02 0.2 M0.16 4.08 C-0.23 3.05, -0.23 2.2, 0.06 0.1" stroke="#000000" stroke-width="1" fill="none"></path></g></svg>