<svg version="1.1" xmlns="http://www.w3.org/2000/svg" viewBox="0 0 497.66952772966386 293.10164880148" width="995.3390554593277" height="586.20329760296">
  <!-- svg-source:excalidraw -->
  
  <defs>
    <style>
      @font-face {
        font-family: "Virgil";
        src: url("https://excalidraw.com/Virgil.woff2");
      }
      @font-face {
        font-family: "Cascadia";
        src: url("https://excalidraw.com/Cascadia.woff2");
      }
    </style>
  </defs>
  <g stroke-linecap="round" transform="translate(321.10929652899756 70.7413420072744) rotate(0 82.6821894295324 9.775234218269816)"><path d="M0.07 -1.92 C65.1 2.45, 131.08 0.31, 163.55 -1.99 M-0.92 -0.36 C48.45 -0.84, 96.7 -1.26, 165.08 0.48 M167.14 0.56 C164.57 6.17, 167.27 13.58, 165 19.73 M165.22 0.45 C164.6 5, 164.65 12.05, 165.16 19.96 M165.9 17.99 C126.19 19.01, 84.61 22.53, 1.44 19.11 M166.25 18.55 C131.8 21.13, 98.56 20.12, -0.79 18.75 M-0.26 21.22 C0.03 11.22, -0.83 5.91, -0.08 0.15 M-0.55 19.11 C0.47 11.07, 0.66 4.54, -0.07 -0.97" stroke="#000000" stroke-width="1" fill="none"></path></g><g stroke-linecap="round"><g transform="translate(328.2813408644914 75.26743990770024) rotate(0 -0.6122093602969017 5.823496574641013)"><path d="M0.04 -1.15 C0.24 1.08, 0.03 10.69, 0.17 12.8 M-1.4 0.85 C-1.26 2.82, -1.01 9.23, -0.69 11.2" stroke="#000000" stroke-width="1" fill="none"></path></g></g><g stroke-linecap="round"><g transform="translate(333.7808735053608 75.05048719499428) rotate(0 -0.0823740988970485 5.948064616944407)"><path d="M-1.15 0.17 C-0.89 2.28, 0.85 10.92, 0.99 12.68 M0.44 -0.78 C0.68 0.99, 0.84 8.97, 0.56 11.01" stroke="#000000" stroke-width="1" fill="none"></path></g></g><g stroke-linecap="round"><g transform="translate(339.07806426493505 74.8524689661665) rotate(0 -0.14690683158175943 6.682872473171756)"><path d="M0.17 0.99 C0.31 3.1, 1.08 9.91, 0.87 11.52 M-1.2 0.46 C-1.14 2.85, -0.03 11.1, 0.38 12.9" stroke="#000000" stroke-width="1" fill="none"></path></g></g><g stroke-linecap="round"><g transform="translate(343.8044514924255 74.90657756720498) rotate(0 -0.19812966990900804 5.982523326596947)"><path d="M0.99 0.87 C1.13 2.63, 0.07 8.92, -0.29 10.72 M0.05 0.28 C0.11 2.13, -1.56 9.57, -1.39 11.69" stroke="#000000" stroke-width="1" fill="none"></path></g></g><g stroke-linecap="round"><g transform="translate(348.92640837346346 75.50302871429881) rotate(0 -0.018384075134463274 5.018869017532893)"><path d="M0.87 -0.29 C0.66 1.31, -0.93 8.44, -1.09 10.62 M-0.14 -1.49 C0 0.13, 1.18 9.46, 1.05 11.53" stroke="#000000" stroke-width="1" fill="none"></path></g></g><g stroke-linecap="round"><g transform="translate(354.34081585377214 74.84858047082048) rotate(0 0.26354585337810477 6.04059640544267)"><path d="M-0.29 -1.09 C-0.66 0.71, -1.4 9.47, -1.19 11.69 M1.75 0.95 C1.65 2.88, 1.07 11.63, 0.89 13.17" stroke="#000000" stroke-width="1" fill="none"></path></g></g><g stroke-linecap="round"><g transform="translate(359.56251531081637 74.61786214766016) rotate(0 -0.2936572410072813 5.778269809962126)"><path d="M-1.09 -1.19 C-1.25 0.98, -0.38 10.77, -0.12 12.75 M0.54 0.79 C0.13 2.67, -1.03 9.34, -1.13 11.12" stroke="#000000" stroke-width="1" fill="none"></path></g></g><g stroke-linecap="round"><g transform="translate(364.9237113839946 74.96776327206408) rotate(0 -0.12760086357593536 5.5311175394317615)"><path d="M-1.19 -0.12 C-0.99 2.11, 0.92 10.37, 0.94 12.29 M0.38 -1.22 C0.54 0.74, 0.34 8.13, 0.48 10.41" stroke="#000000" stroke-width="1" fill="none"></path></g></g><g stroke-linecap="round"><g transform="translate(370.1572204739281 74.84439719129023) rotate(0 -0.5800137906862801 6.028609374931875)"><path d="M-0.12 0.94 C0.14 2.92, 0.53 8.81, 0.47 10.71 M-1.64 0.39 C-1.4 2.58, -0.26 10.02, -0.22 11.67" stroke="#000000" stroke-width="1" fill="none"></path></g></g><g stroke-linecap="round"><g transform="translate(374.8511048698141 74.2901231732983) rotate(0 -0.032331404308706624 6.188508188447713)"><path d="M0.94 0.47 C0.95 2.39, -1.03 9.53, -1.1 11.39 M-0.03 -0.32 C0.45 1.77, 1.02 10.51, 1.03 12.7" stroke="#000000" stroke-width="1" fill="none"></path></g></g><g stroke-linecap="round"><g transform="translate(390.72175917292554 74.7605679179137) rotate(0 -0.561786378468355 5.625447124720495)"><path d="M0.47 -1.1 C0.42 0.8, -0.31 10.06, -0.43 12.35 M-0.74 0.94 C-0.97 2.4, -1.54 8.87, -1.6 10.51" stroke="#000000" stroke-width="1" fill="none"></path></g></g><g stroke-linecap="round"><g transform="translate(380.03719533473475 75.02978177011732) rotate(0 -0.28042354881756637 5.655965738019745)"><path d="M-1.1 -0.43 C-1.17 1.43, 0.21 9.67, 0.54 11.59 M0.52 -1.7 C0.26 0.3, -0.13 10.72, -0.13 13.01" stroke="#000000" stroke-width="1" fill="none"></path></g></g><g stroke-linecap="round"><g transform="translate(395.9546062473297 74.48447104233537) rotate(0 0.13059231505735625 6.216786201249647)"><path d="M-0.43 0.54 C-0.54 2.83, -0.17 10.84, -0.22 12.66 M1.55 -0.22 C1.22 1.83, -1.33 8.84, -1.29 10.98" stroke="#000000" stroke-width="1" fill="none"></path></g></g><g stroke-linecap="round"><g transform="translate(385.4026751889206 74.41823088968499) rotate(0 0.13391911597420858 5.429395959100475)"><path d="M0.54 -0.22 C0.86 1.69, 0.99 8.99, 0.85 11.09 M-0.64 -1.39 C-0.3 0.71, 0.45 10.29, 0.34 12.25" stroke="#000000" stroke-width="1" fill="none"></path></g></g><g stroke-linecap="round"><g transform="translate(401.15662680447247 74.86555399616054) rotate(0 -0.09597746386191375 6.537712594441018)"><path d="M-0.22 0.85 C-0.27 2.67, -0.86 9.62, -0.72 11.47 M-1.8 0.24 C-1.42 2.19, 1.29 10.64, 1.61 12.83" stroke="#000000" stroke-width="1" fill="none"></path></g></g><g stroke-linecap="round"><g transform="translate(414.17541191940666 76.4048272021339) rotate(0 20.314234297430403 0.13414643987084673)"><path d="M0.85 -0.72 C7.56 -0.59, 34.05 0.46, 40.8 0.58 M-0.17 1.51 C6.31 1.31, 32.87 -1.21, 39.67 -1.24" stroke="#000000" stroke-width="1" fill="none"></path></g></g><g stroke-linecap="round"><g transform="translate(414.71901795424367 87.70717103223569) rotate(0 20.52169697523732 -3.397081775459128)"><path d="M-0.14 -0.96 C0.01 -2.52, 0.02 -3.41, 0.09 -6.08 M-0.05 -1.17 C-0.08 -2.74, -0.18 -4.06, 0.06 -6.05 M-0.47 -5.05 C7.85 -7.03, 19.81 -5.49, 39.53 -5.3 M0.67 -6.11 C7.45 -5.42, 17.43 -5.26, 40.09 -5.42 M40.7 -6.1 C41.61 -3.49, 41.13 -2.21, 41.51 -0.77 M41.08 -5.69 C41.31 -4.31, 41.21 -3.2, 40.98 -0.69" stroke="#000000" stroke-width="1" fill="none"></path></g></g><g stroke-linecap="round" transform="translate(467.99700161944463 75.85112353046134) rotate(0 5.183836327870381 5.183836327870381)"><path d="M6.45 0.3 C7.45 0.28, 7.57 0.64, 8.38 1.47 C9.19 2.31, 11.17 4.19, 11.32 5.31 C11.47 6.43, 10.09 7.46, 9.29 8.17 C8.5 8.89, 7.67 9.33, 6.56 9.59 C5.45 9.86, 3.58 10.24, 2.65 9.77 C1.72 9.3, 1.53 7.87, 0.99 6.79 C0.44 5.71, -0.91 4.31, -0.63 3.31 C-0.35 2.31, 1.42 1.41, 2.66 0.78 C3.91 0.15, 6.15 -0.55, 6.83 -0.46 C7.5 -0.37, 6.76 1.28, 6.71 1.33 M6.94 1.1 C8.17 1.11, 7.81 -0.62, 8.57 0.14 C9.34 0.9, 11.15 4.57, 11.51 5.66 C11.87 6.76, 11.49 5.8, 10.72 6.72 C9.95 7.64, 7.96 10.74, 6.88 11.17 C5.81 11.6, 5.55 10.14, 4.28 9.3 C3.01 8.45, -0.3 6.8, -0.73 6.1 C-1.17 5.4, 1.15 6.01, 1.65 5.11 C2.15 4.21, 1.36 1.52, 2.25 0.7 C3.14 -0.12, 6.49 0.36, 6.99 0.18 C7.5 0, 5.24 -0.42, 5.26 -0.37" stroke="#000000" stroke-width="1" fill="none"></path></g><g stroke-linecap="round" transform="translate(321.51659795476087 90.69911186957643) rotate(0 82.6821894295324 9.775234218269816)"><path d="M0.28 -0.04 C39.98 1.02, 79.86 -1.6, 165.4 1.95 M-0.05 -0.57 C60.22 -0.3, 121.74 -0.81, 164.58 -0.62 M164.18 -0.94 C166.92 7.41, 163.79 14.18, 163.52 17.99 M164.43 0.75 C166.06 8.33, 164.53 15.2, 165.99 20.43 M167.3 21.34 C121.79 17.96, 79.99 18.43, -0.59 18.88 M166.34 19.86 C100.41 19.11, 33.94 20.22, -0.72 20.29 M-0.85 20.41 C-1.2 12.48, 0.28 4.03, 0.78 -0.78 M0.96 19.98 C-0.61 15.48, 0.4 10.39, -0.47 -0.47" stroke="#000000" stroke-width="1" fill="none"></path></g><g stroke-linecap="round"><g transform="translate(329.1056160600723 94.9833663823033) rotate(0 -0.49511540880041593 5.910862567450749)"><path d="M0.17 -0.02 C0.26 2.03, 0.17 11.01, 0.2 12.9 M-1.2 -1.08 C-1.22 0.61, -0.8 9.1, -0.64 11.35" stroke="#000000" stroke-width="1" fill="none"></path></g></g><g stroke-linecap="round"><g transform="translate(334.4670367249756 94.87885264408055) rotate(0 -0.20177549808749973 5.710802490960646)"><path d="M-0.02 0.2 C0.06 2.2, 1.17 10.22, 1.09 12.16 M-1.49 -0.74 C-1.52 0.87, 0.71 7.9, 0.71 10.22" stroke="#000000" stroke-width="1" fill="none"></path></g></g><g stroke-linecap="round"><g transform="translate(339.62827284597245 94.80181075949304) rotate(0 -0.4041975356662988 6.612443167886568)"><path d="M0.2 1.09 C0.23 2.98, 0.38 9.34, 0.34 11.33 M-1.15 0.61 C-1.26 2.67, -0.49 10.84, -0.42 12.61" stroke="#000000" stroke-width="1" fill="none"></path></g></g><g stroke-linecap="round"><g transform="translate(344.2033248492106 94.8206272265561) rotate(0 -0.299069090927901 6.42952790396555)"><path d="M1.09 0.34 C1.01 2.28, -0.5 9.79, -0.48 11.83 M0.2 -0.52 C-0.07 1.61, -1.82 11.51, -1.69 13.38" stroke="#000000" stroke-width="1" fill="none"></path></g></g><g stroke-linecap="round"><g transform="translate(349.5851746943109 94.92961121307553) rotate(0 -0.37223350777753694 5.600238738085864)"><path d="M0.34 -0.48 C0.31 1.5, -0.06 10.97, 0.02 12.98 M-0.93 -1.78 C-1.14 0.41, -1.15 9.05, -0.92 11.48" stroke="#000000" stroke-width="1" fill="none"></path></g></g><g stroke-linecap="round"><g transform="translate(354.3466789156813 95.20873843634968) rotate(0 0.4890454223798315 5.797935223828858)"><path d="M-0.48 0.02 C-0.47 2.06, 1.13 10.63, 1.17 12.61 M1.46 -1.02 C1.33 0.66, 1.27 8.52, 0.84 10.91" stroke="#000000" stroke-width="1" fill="none"></path></g></g><g stroke-linecap="round"><g transform="translate(359.8077491319167 93.89253282555819) rotate(0 -0.31470284170939067 6.87471979351983)"><path d="M0.02 1.17 C0.1 3.18, 0.79 9.82, 0.8 11.59 M-1.43 0.74 C-1.47 2.98, 0.13 10.96, 0.27 13.01" stroke="#000000" stroke-width="1" fill="none"></path></g></g><g stroke-linecap="round"><g transform="translate(364.88900991149933 94.44041032883524) rotate(0 -0.05895607336890407 6.844523846081302)"><path d="M1.17 0.8 C1.22 2.78, -0.02 10.2, -0.22 11.92 M0.33 0.17 C0.24 2.37, -1.09 11.53, -1.29 13.51" stroke="#000000" stroke-width="1" fill="none"></path></g></g><g stroke-linecap="round"><g transform="translate(370.3165170930321 93.99122719955176) rotate(0 0.008647052426795199 5.93594504328712)"><path d="M0.8 -0.22 C0.82 1.54, 0.36 9.83, 0.11 11.75 M-0.24 -1.39 C-0.37 1.08, -0.52 10.97, -0.78 13.26" stroke="#000000" stroke-width="1" fill="none"></path></g></g><g stroke-linecap="round"><g transform="translate(375.50681222745095 94.1729394873048) rotate(0 -0.9822560819186492 5.708555363586925)"><path d="M-0.22 0.11 C-0.43 1.83, -0.01 9.2, -0.06 11.12 M-1.8 -0.88 C-2.27 0.91, -1.08 10.01, -1.04 12.3" stroke="#000000" stroke-width="1" fill="none"></path></g></g><g stroke-linecap="round"><g transform="translate(390.88944767710825 94.88732751164866) rotate(0 0.18318194062442217 5.721326558313194)"><path d="M0.11 -0.06 C-0.14 1.86, -0.64 9.23, -0.69 11.31 M-1.29 -1.13 C-1.22 0.97, 1.62 10.67, 1.66 12.58" stroke="#000000" stroke-width="1" fill="none"></path></g></g><g stroke-linecap="round"><g transform="translate(380.50406330547924 94.79523084329685) rotate(0 -0.9522401417990523 6.193467542331518)"><path d="M-0.06 -0.69 C-0.11 1.23, -0.61 9.68, -0.51 11.63 M-1.55 1.56 C-1.78 3.66, -1.99 11.35, -1.72 13.08" stroke="#000000" stroke-width="1" fill="none"></path></g></g><g stroke-linecap="round"><g transform="translate(396.23134733903055 95.00517885366116) rotate(0 -0.03570623486302793 5.275389852549779)"><path d="M-0.69 -0.51 C-0.74 1.56, -0.16 10.47, -0.18 12.37 M1.15 -1.82 C0.92 -0.1, -1.31 8.29, -1.22 10.54" stroke="#000000" stroke-width="1" fill="none"></path></g></g><g stroke-linecap="round"><g transform="translate(385.5029111698399 94.5719248803573) rotate(0 0.4613584020780763 5.406445745399992)"><path d="M-0.51 -0.18 C-0.4 1.77, 0.63 9.14, 0.56 11.01 M1.43 -1.32 C1.43 0.83, -0.1 9.91, -0.1 12.13" stroke="#000000" stroke-width="1" fill="none"></path></g></g><g stroke-linecap="round"><g transform="translate(401.56098427500604 94.23662057630213) rotate(0 -0.11892767756239664 5.857947056016769)"><path d="M-0.18 0.56 C-0.2 2.45, -0.7 8.89, -0.8 10.87 M-1.73 -0.2 C-1.31 1.87, 0.91 10.14, 1.49 11.91" stroke="#000000" stroke-width="1" fill="none"></path></g></g><g stroke-linecap="round"><g transform="translate(414.55824291877786 96.29278721617379) rotate(0 20.90129563399705 0.2756424605710208)"><path d="M0.56 -0.8 C7.34 -0.89, 33.33 -0.83, 40.2 -0.74 M-0.61 1.4 C6.59 1.46, 35.42 0.48, 42.41 0.41" stroke="#000000" stroke-width="1" fill="none"></path></g></g><g stroke-linecap="round"><g transform="translate(415.04661213265547 107.86634748369215) rotate(0 21.249788856533883 -3.598906753116694)"><path d="M-0.38 -1.48 C0.2 -2.63, 0.15 -4.15, -0.27 -5.51 M-0.23 -1.37 C0.21 -2.55, -0.05 -4.48, 0.13 -5.76 M1.24 -4.08 C15.22 -7.52, 30.35 -3.93, 42.88 -5.73 M-0.34 -6.22 C12.72 -5.92, 23.63 -4.85, 41.4 -5.17 M40.74 -5.34 C41.33 -4.55, 40.58 -3.54, 41.31 -1.12 M41.19 -5.8 C40.92 -4.3, 40.89 -2.61, 41.2 -0.97" stroke="#000000" stroke-width="1" fill="none"></path></g></g><g stroke-linecap="round" transform="translate(468.4043030452002 95.80889339276155) rotate(0 5.183836327870381 5.183836327870381)"><path d="M5.92 -0.3 C7.13 -0.12, 9.64 1.45, 10.25 2.48 C10.85 3.5, 9.96 4.91, 9.57 5.84 C9.18 6.77, 8.42 7.18, 7.9 8.05 C7.38 8.92, 7.43 11, 6.45 11.07 C5.46 11.14, 2.91 9.14, 1.99 8.48 C1.07 7.81, 1.05 8.17, 0.95 7.09 C0.84 6.01, 0.99 2.99, 1.38 1.99 C1.77 1, 2.23 1.48, 3.28 1.13 C4.34 0.78, 7.23 0.14, 7.72 -0.1 C8.22 -0.35, 6.3 -0.63, 6.28 -0.34 M5.3 -0.44 C6.31 -0.49, 7.17 1.83, 7.99 2.63 C8.81 3.43, 9.69 3.43, 10.22 4.36 C10.75 5.29, 11.56 7.4, 11.15 8.2 C10.75 9.01, 9.19 8.75, 7.8 9.19 C6.4 9.64, 4.14 10.92, 2.78 10.88 C1.42 10.83, -0.05 10.02, -0.37 8.91 C-0.69 7.8, 0.76 5.6, 0.88 4.22 C1 2.83, -0.48 1.45, 0.34 0.59 C1.16 -0.27, 5.02 -0.89, 5.81 -0.93 C6.59 -0.98, 5.36 -0.04, 5.04 0.3" stroke="#000000" stroke-width="1" fill="none"></path></g><g stroke-linecap="round" transform="translate(321.51659795476087 110.24958030611742) rotate(0 82.6821894295324 9.775234218269816)"><path d="M1.05 -0.42 C39.44 -0.19, 76.24 2.65, 165.9 -1.56 M0.82 0.72 C52.77 0.37, 106.75 1.89, 166.25 -1 M164.65 -1.55 C163.92 8.32, 167.24 12.83, 165.11 21.22 M166.3 -0.04 C165.38 7.02, 165.61 12.66, 164.81 19.11 M166.44 19.41 C104.85 19.9, 49.19 19.52, -0.15 19.82 M164.64 19.45 C129.1 19.87, 95 18.25, 0.38 19.94 M-0.94 19.23 C-0.36 15.31, -0.98 9.08, 1.69 0.31 M-0.4 20.4 C-0.52 11.99, 0.64 4.76, 0.54 -0.51" stroke="#000000" stroke-width="1" fill="none"></path></g><g stroke-linecap="round"><g transform="translate(328.7460291108986 114.60491400120668) rotate(0 0.12410919520129937 5.405161696842697)"><path d="M0.63 -0.25 C0.87 1.72, 0.71 8.91, 0.5 11.08 M-0.5 -1.43 C-0.29 0.75, 0.01 10.17, -0.18 12.24" stroke="#000000" stroke-width="1" fill="none"></path></g></g><g stroke-linecap="round"><g transform="translate(334.25818951475947 114.83590980728718) rotate(0 0.6209902361867989 6.095639147481734)"><path d="M-0.25 0.5 C-0.25 2.27, -0.93 9.3, -0.73 11.23 M1.82 -0.28 C2.27 1.59, 1.78 10.15, 1.6 12.47" stroke="#000000" stroke-width="1" fill="none"></path></g></g><g stroke-linecap="round"><g transform="translate(339.56940784460664 114.28763257769992) rotate(0 0.5702657245192313 6.031036323786566)"><path d="M0.5 -0.73 C0.3 1.45, -0.55 10.86, -0.58 12.79 M-0.69 1.5 C-0.54 3.38, 1.76 9.48, 1.83 11.18" stroke="#000000" stroke-width="1" fill="none"></path></g></g><g stroke-linecap="round"><g transform="translate(343.9862327721454 114.17436374014824) rotate(0 0.19184697931405026 5.776973820210287)"><path d="M-0.73 -0.58 C-0.52 1.36, 1.01 10.03, 0.98 12.13 M1.09 1.73 C1.25 3.25, 0.48 8.22, 0.54 10.18" stroke="#000000" stroke-width="1" fill="none"></path></g></g><g stroke-linecap="round"><g transform="translate(349.29448613220154 115.0370236064964) rotate(0 0.3702457395243073 6.182270676067901)"><path d="M-0.58 0.98 C-0.61 2.91, 0.18 9.26, 0.32 10.87 M1.32 0.45 C1.11 2.57, -0.17 10.09, -0.46 11.92" stroke="#000000" stroke-width="1" fill="none"></path></g></g><g stroke-linecap="round"><g transform="translate(355.00228345194193 114.64527355834139) rotate(0 0.17156508602670328 5.750099785353882)"><path d="M0.98 0.32 C0.94 2.43, -0.59 10.3, -0.94 12.06 M0.03 -0.56 C0.43 1.22, 1.09 8.03, 1.28 10.06" stroke="#000000" stroke-width="1" fill="none"></path></g></g><g stroke-linecap="round"><g transform="translate(360.1141000430961 114.17813418391461) rotate(0 -0.277788581163918 5.34055546323566)"><path d="M0.32 -0.94 C0.46 0.68, 0.46 8.39, 0.25 10.68 M-0.97 1.18 C-0.92 2.82, -0.97 9.99, -0.57 11.62" stroke="#000000" stroke-width="1" fill="none"></path></g></g><g stroke-linecap="round"><g transform="translate(365.3576967278892 114.86813141740845) rotate(0 -0.1613294270557617 5.608476884088304)"><path d="M-0.94 0.25 C-1.29 2, -1.45 8.78, -1.13 10.85 M0.77 -0.67 C0.69 1.18, 0.99 9.98, 0.98 11.89" stroke="#000000" stroke-width="1" fill="none"></path></g></g><g stroke-linecap="round"><g transform="translate(370.7139834121771 114.10989600533867) rotate(0 0.08310346112580191 5.828009266138906)"><path d="M0.25 -1.13 C0.03 1.15, -1.06 10.68, -0.96 12.79 M-1.09 0.88 C-0.96 2.93, 0.98 9.21, 1.25 11.18" stroke="#000000" stroke-width="1" fill="none"></path></g></g><g stroke-linecap="round"><g transform="translate(375.0863293743645 114.28949673541365) rotate(0 -0.07786140739915481 5.857874107838484)"><path d="M-1.13 -0.96 C-0.81 1.11, 0.83 10.74, 0.98 12.67 M0.47 1.15 C0.8 2.87, 0.82 9.3, 0.54 11" stroke="#000000" stroke-width="1" fill="none"></path></g></g><g stroke-linecap="round"><g transform="translate(391.28496899529307 113.8088303633433) rotate(0 -0.04799656569957733 6.697391427925595)"><path d="M-0.96 0.98 C-0.85 3.09, 0.89 9.59, 0.86 11.55 M0.74 0.45 C0.74 2.84, 0.3 11.21, 0.37 12.95" stroke="#000000" stroke-width="1" fill="none"></path></g></g><g stroke-linecap="round"><g transform="translate(380.3170043350334 114.97990926160355) rotate(0 -0.18492280903285518 5.936988250932586)"><path d="M0.98 0.86 C1.12 2.8, -0.25 8.73, -0.26 10.67 M0.03 0.27 C0.1 2.39, -1.45 9.9, -1.35 11.61" stroke="#000000" stroke-width="1" fill="none"></path></g></g><g stroke-linecap="round"><g transform="translate(396.01154100554675 114.0193526527994) rotate(0 -0.08759701594249236 5.644139315139341)"><path d="M0.86 -0.26 C0.83 1.7, -1.11 10.54, -1.14 12.74 M-0.15 -1.45 C0.26 0.1, 0.9 9.01, 0.97 11.1" stroke="#000000" stroke-width="1" fill="none"></path></g></g><g stroke-linecap="round"><g transform="translate(385.2894720880919 113.67700242328829) rotate(0 0.7682814448373847 5.675641251087882)"><path d="M-0.26 -1.14 C-0.27 0.8, 0.7 10.54, 0.92 12.49 M1.8 0.87 C1.63 2.39, 0.62 8.99, 0.46 10.73" stroke="#000000" stroke-width="1" fill="none"></path></g></g><g stroke-linecap="round"><g transform="translate(401.23199240954125 113.87760204480946) rotate(0 -0.2302294224500656 6.6209972884765875)"><path d="M-1.14 0.92 C-1.17 3.11, 0.69 11.01, 0.68 12.88 M0.46 0.36 C0.25 2.26, -0.01 9.71, 0.09 11.32" stroke="#000000" stroke-width="1" fill="none"></path></g></g><g stroke-linecap="round"><g transform="translate(414.7308967229143 116.10109247646324) rotate(0 21.077081223881123 -0.258426234126091)"><path d="M0.92 0.68 C8 0.67, 35.45 -1.21, 42.21 -1.2 M-0.05 0 C6.99 0.19, 34.99 -0.1, 41.82 -0.29" stroke="#000000" stroke-width="1" fill="none"></path></g></g><g stroke-linecap="round"><g transform="translate(414.6556140065878 127.04621779337776) rotate(0 20.06293873269169 -4.305750337449695)"><path d="M0.41 -1.66 C0.08 -1.85, 0.36 -3.28, -0.42 -6.27 M-0.04 -0.99 C-0.04 -3.12, -0.16 -4.69, -0.06 -5.87 M-1.18 -6.78 C17.38 -7.48, 34.13 -4.88, 40.95 -7.69 M-0.12 -5.76 C9.65 -5.19, 20.67 -6.27, 40.99 -6.56 M41.28 -5.51 C40.98 -4, 40.88 -2.05, 41.01 -0.93 M41.3 -5.67 C41.22 -3.85, 41.3 -2.33, 41.3 -0.92" stroke="#000000" stroke-width="1" fill="none"></path></g></g><g stroke-linecap="round" transform="translate(468.4043030452002 115.35936182930163) rotate(0 5.183836327870381 5.183836327870381)"><path d="M5.56 -0.74 C6.38 -0.64, 7.3 1.74, 8.25 2.7 C9.2 3.66, 11.11 3.92, 11.26 5.01 C11.4 6.11, 9.94 8.42, 9.12 9.25 C8.3 10.07, 7.46 9.72, 6.34 9.97 C5.22 10.21, 3.4 11.17, 2.39 10.71 C1.39 10.25, 0.52 8.32, 0.33 7.18 C0.14 6.04, 0.79 5.03, 1.24 3.86 C1.68 2.7, 2.26 0.75, 2.99 0.21 C3.73 -0.33, 5.24 0.5, 5.66 0.62 C6.09 0.75, 5.39 0.97, 5.54 0.96 M1.78 0.51 C2.82 -0.37, 5.08 -1.32, 6.43 -1.18 C7.77 -1.04, 9.37 0.3, 9.85 1.36 C10.32 2.42, 9.62 3.73, 9.28 5.18 C8.93 6.64, 8.22 9.4, 7.78 10.1 C7.33 10.79, 7.39 9.33, 6.6 9.35 C5.82 9.36, 4.17 10.72, 3.04 10.18 C1.92 9.64, 0.42 7.37, -0.15 6.09 C-0.71 4.82, -0.8 3.53, -0.36 2.56 C0.07 1.59, 1.81 0.72, 2.47 0.27 C3.13 -0.17, 3.5 -0.46, 3.6 -0.11" stroke="#000000" stroke-width="1" fill="none"></path></g><g stroke-linecap="round"><g transform="translate(320.9225890065517 70.04837568666107) rotate(0 16.904120159123522 -15.089388382409197)"><path d="M0.58 1.28 C12.86 -11.75, 20.81 -23.97, 33.7 -29.98 M0.1 -0.29 C9.19 -8.8, 18.97 -19.16, 32.74 -31.46" stroke="#000000" stroke-width="1" fill="none"></path></g></g><g stroke-linecap="round"><g transform="translate(486.3851580970621 69.88484445565064) rotate(0 -15.089388382409197 -14.995826401535851)"><path d="M1.28 1.81 C-12.77 -13.85, -26 -22.69, -29.98 -31.8 M-0.29 -0.33 C-8.42 -9.12, -18.42 -17.22, -31.46 -31.23" stroke="#000000" stroke-width="1" fill="none"></path></g></g><g stroke-linecap="round"><g transform="translate(353.09110983326434 38.617455533453494) rotate(0 50.48616600626997 -0.04717973581625756)"><path d="M1.81 -0.73 C18.57 -2.13, 42.25 1.4, 100.74 0.38 M-0.33 0.96 C38.8 0.62, 78.66 1.1, 101.31 0.08" stroke="#000000" stroke-width="1" fill="none"></path></g></g><g stroke-linecap="round"><g transform="translate(161.76167159107706 90.16644860840097) rotate(0 74.36496652809797 0.8094595789816594)"><path d="M1.11 -1.06 C25.32 -0.86, 121.78 1.05, 146.14 1.56 M0.24 0.99 C24.77 1.3, 124.08 2.33, 148.49 2.68" stroke="#000000" stroke-width="1" fill="none"></path></g><g transform="translate(161.76167159107706 90.16644860840097) rotate(0 74.36496652809797 0.8094595789816594)"><path d="M118.41 11.48 C129.38 9.37, 140.63 6.65, 147.49 2.34 M120.65 12.11 C127.89 9.56, 136.35 7.2, 149.17 2.7" stroke="#000000" stroke-width="1" fill="none"></path></g><g transform="translate(161.76167159107706 90.16644860840097) rotate(0 74.36496652809797 0.8094595789816594)"><path d="M118.66 -9.04 C129.59 -3.51, 140.76 1.4, 147.49 2.34 M120.9 -8.41 C128.23 -5.1, 136.61 -1.59, 149.17 2.7" stroke="#000000" stroke-width="1" fill="none"></path></g></g><g stroke-linecap="round"><g transform="translate(97.57113056861328 11.118323470078849) rotate(0 12.979895268757332 12.645453453724826)" fill-rule="evenodd"><path d="M0.16 -1.5 L0.53 15.52 L2.68 21.53 L15.49 23.3 L27.76 22.88 L-1.55 -1.43" stroke="none" stroke-width="0" fill="#000000" fill-rule="evenodd"></path><path d="M-0.62 0.39 C-0.58 2.45, 0.5 8.52, 1.26 12.19 C2.01 15.86, 1.55 20.34, 3.88 22.4 C6.21 24.45, 11.72 24.41, 15.23 24.52 C18.74 24.62, 24.46 24.43, 24.95 23.03 C25.44 21.63, 21.01 19.05, 18.17 16.11 C15.34 13.18, 10.85 8.04, 7.94 5.42 C5.02 2.8, 2.12 1.5, 0.68 0.4 M1.25 -0.44 C1.12 1.26, 0.4 6.86, 0.76 10.32 C1.12 13.78, 0.86 17.77, 3.41 20.32 C5.95 22.88, 12.15 25.18, 16.01 25.65 C19.87 26.11, 26.57 24.78, 26.58 23.11 C26.6 21.44, 19.1 18.25, 16.08 15.62 C13.06 12.99, 11.13 9.87, 8.45 7.31 C5.77 4.75, 1.26 1.41, 0.02 0.26" stroke="#000000" stroke-width="1" fill="none"></path></g></g><g stroke-linecap="round"><g transform="translate(97.26991117688988 11.286621983805617) rotate(0 -37.63312543479776 -0.18986087113182748)"><path d="M0.39 0.87 C-12.08 1.06, -62.41 0.52, -74.97 0.55 M-0.86 0.28 C-13.43 0.17, -63.23 -1.11, -75.66 -1.29" stroke="#000000" stroke-width="1" fill="none"></path></g></g><g stroke-linecap="round"><g transform="translate(21.96309271751909 11.539830991792314) rotate(0 0.37315068650889316 72.95814466717468)"><path d="M0.87 0.48 C1.06 24.79, 0.52 122.01, 0.55 146.22 M-0.14 -0.31 C0 23.6, -0.27 119.8, -0.11 144.37" stroke="#000000" stroke-width="1" fill="none"></path></g></g><g stroke-linecap="round"><g transform="translate(22.182070479193158 156.86591182029952) rotate(0 50.87493250315384 0.2569468485278321)"><path d="M0.48 0.55 C17.5 0.57, 85.55 1.29, 102.47 1.02 M-0.72 -0.21 C16.14 -0.58, 84.79 -0.55, 101.79 -0.56" stroke="#000000" stroke-width="1" fill="none"></path></g></g><g stroke-linecap="round"><g transform="translate(123.95210010682433 157.74167701497072) rotate(0 0.26417998814235943 -61.14824161084982)"><path d="M0.55 0.51 C0.59 -20.04, 1.36 -102.14, 1.1 -122.81 M-0.62 -0.27 C-0.73 -20.65, 0.36 -100.88, 0.69 -121.24" stroke="#000000" stroke-width="1" fill="none"></path></g></g><g stroke-linecap="round"><g transform="translate(96.93228273153147 11.695717553463282) rotate(0 13.173607860962193 12.459701524929642)"><path d="M0.51 1.02 C4.93 4.83, 22.72 19.46, 27.03 23.43 M-0.68 0.51 C3.55 4.39, 21.78 20.11, 26.11 24.41" stroke="#000000" stroke-width="1" fill="none"></path></g></g><g stroke-linecap="round"><g transform="translate(49.966813669534645 95.90397684531217) rotate(0 24.672592714964196 19.992511286874333)" fill-rule="evenodd"><path d="M-23.12 1.46 L84.55 -0.41 L87.44 7.47 L88.78 10.01 L87.93 33.15 L82.65 38.4 L76.09 38.3 L-16.31 40.44 L-34.1 37.13 L-38.37 32.23 L-40.33 28.76 L-38.51 11.85 L-33.15 0.67 L-25.39 -1.2" stroke="none" stroke-width="0" fill="#fff" fill-rule="evenodd"></path><path d="M-23.53 0.05 C-15.92 -0.13, 4.97 -0.83, 21.69 -0.6 C38.41 -0.38, 66.27 0.99, 76.8 1.4 C87.32 1.81, 82.78 0.15, 84.85 1.86 C86.91 3.57, 88.65 7.7, 89.18 11.66 C89.71 15.62, 88.53 21.6, 88.01 25.62 C87.5 29.63, 88.07 33.64, 86.08 35.74 C84.09 37.84, 86.62 37.6, 76.08 38.22 C65.55 38.84, 39.65 39.4, 22.89 39.47 C6.13 39.54, -15.07 39.23, -24.5 38.63 C-33.93 38.02, -31.19 37.83, -33.72 35.83 C-36.24 33.84, -38.83 30.82, -39.64 26.67 C-40.44 22.53, -39.66 15.12, -38.55 10.96 C-37.45 6.79, -35.2 3.5, -33 1.69 C-30.81 -0.12, -26.72 0.46, -25.38 0.08 M-24.45 -0.97 C-16.53 -1.05, 7.07 0.52, 23.84 0.62 C40.62 0.72, 66 -0.71, 76.19 -0.4 C86.38 -0.08, 82.98 0.42, 84.96 2.53 C86.94 4.64, 87.38 8.08, 88.07 12.26 C88.76 16.44, 89.29 23.39, 89.08 27.61 C88.86 31.83, 89.15 35.36, 86.78 37.58 C84.4 39.81, 85.19 40.89, 74.84 40.95 C64.49 41.02, 41.64 38.5, 24.67 37.98 C7.7 37.45, -16.79 38.04, -26.99 37.81 C-37.19 37.57, -34.69 38.58, -36.5 36.58 C-38.32 34.58, -37.56 30.25, -37.88 25.8 C-38.2 21.35, -39.22 14, -38.43 9.88 C-37.64 5.76, -35.32 2.79, -33.16 1.07 C-31 -0.65, -26.99 -0.32, -25.48 -0.43" stroke="#000000" stroke-width="1" fill="none"></path></g></g><g transform="translate(35.38449982859049 98.67936977424915) rotate(0 38.5780219738906 17.917754281712178)"><text x="0" y="24.83550856342442" font-family="Virgil, Segoe UI Emoji" font-size="28.341905055218355px" fill="#000000" text-anchor="start" style="white-space: pre;" direction="ltr">HTML</text></g><g stroke-linecap="round"><g transform="translate(33.16079574769776 36.38917981405439) rotate(0 27.449781188778616 0.5479954351437755)"><path d="M-1.06 -0.6 C8.1 -0.44, 46.55 1.08, 55.96 1.04 M0.59 1.7 C9.52 1.54, 46.18 -0.26, 55.17 -0.53" stroke="#000000" stroke-width="1" fill="none"></path></g></g><g stroke-linecap="round"><g transform="translate(32.94042058681919 46.995638112180586) rotate(0 36.30564167442873 0.2879952707793336)"><path d="M-0.6 0.3 C11.59 0.44, 61.22 -0.31, 73.21 -0.25 M1.28 -0.58 C13.41 -0.17, 60.72 1.28, 72.81 1.16" stroke="#000000" stroke-width="1" fill="none"></path></g></g><g stroke-linecap="round"><g transform="translate(33.21743194511839 57.54087265444582) rotate(0 35.4624710851503 0.10923781692974899)"><path d="M0.3 1.04 C12.47 1.01, 59.83 -0.72, 71.92 -0.82 M-1 0.54 C11.08 0.69, 58.6 0.66, 70.85 0.28" stroke="#000000" stroke-width="1" fill="none"></path></g></g><g stroke-linecap="round"><g transform="translate(32.507126682428066 68.24757269623387) rotate(0 36.87808189261847 -0.42713030890695336)"><path d="M1.04 -0.25 C13.03 -0.18, 59.43 0.75, 71.35 0.68 M0.13 -1.42 C12.55 -1.73, 61.65 -1.37, 73.63 -1.08" stroke="#000000" stroke-width="1" fill="none"></path></g></g><g stroke-linecap="round"><g transform="translate(32.65961077245686 79.52825506266959) rotate(0 36.303747337489824 -0.08035075203508768)"><path d="M-0.25 -0.82 C11.84 -0.93, 60.9 0.46, 72.85 0.4 M1.82 1.36 C13.79 1.4, 60.84 -1.21, 72.27 -1.52" stroke="#000000" stroke-width="1" fill="none"></path></g></g><g stroke-linecap="round"><g transform="translate(203.1310727871247 122.03720926584106) rotate(0 28.093895237748484 -30.182144835591316)"><path d="M0.25 0.03 C9.74 -10, 47.54 -50.4, 57.26 -60.39 M-1.07 -1.01 C8.21 -10.86, 46.29 -49.59, 56.2 -59.21" stroke="#c92a2a" stroke-width="4" fill="none"></path></g></g><g stroke-linecap="round"><g transform="translate(200.8116147793122 122.15293192209106) rotate(268.93372983828215 29.374522945215062 -29.720912978053093)"><path d="M1.02 0.17 C10.72 -9.86, 49.12 -49.43, 58.66 -59.61 M0.09 -0.78 C9.7 -10.65, 48.7 -48.12, 58.33 -58.03" stroke="#c92a2a" stroke-width="4" fill="none"></path></g></g><g stroke-linecap="round"><g transform="translate(70.82955789636378 178.68224998565256) rotate(0 50.31334274024681 33.48360408534393)"><path d="M-0.41 -1.08 C0.57 9.28, -10.75 52.61, 6.2 63.34 C23.15 74.06, 85.24 63.22, 101.3 63.28 M1.57 0.97 C2.42 11.47, -11.45 50.86, 5.59 61.44 C22.63 72.01, 87.55 63.86, 103.79 64.42" stroke="#000000" stroke-width="1" fill="none"></path></g><g transform="translate(70.82955789636378 178.68224998565256) rotate(0 50.31334274024681 33.48360408534393)"><path d="M74.29 76.98 C85.76 70.98, 93.59 69.29, 103.91 65.3 M75.91 76.72 C82.58 73.12, 87.74 71.76, 103.1 65.02" stroke="#000000" stroke-width="1" fill="none"></path></g><g transform="translate(70.82955789636378 178.68224998565256) rotate(0 50.31334274024681 33.48360408534393)"><path d="M73.39 56.48 C85.35 57.2, 93.49 62.23, 103.91 65.3 M75.01 56.22 C81.79 57.24, 87.15 60.5, 103.1 65.02" stroke="#000000" stroke-width="1" fill="none"></path></g></g><g stroke-linecap="round"><g transform="translate(243.7904010575843 199.2266982724891) rotate(0 7.123229930720413 7.328752224903383)" fill-rule="evenodd"><path d="M-1.15 0.14 L3.2 12.89 L13.09 11.6 L1.77 -1.69" stroke="none" stroke-width="0" fill="#000000" fill-rule="evenodd"></path><path d="M0.11 0.76 C0.28 1.72, 0.58 5.15, 0.84 6.92 C1.1 8.69, 0.63 10.26, 1.67 11.4 C2.72 12.53, 5.08 13.55, 7.11 13.72 C9.13 13.89, 13.22 13.39, 13.81 12.43 C14.4 11.47, 12.14 9.43, 10.65 7.95 C9.15 6.48, 6.75 4.9, 4.84 3.6 C2.92 2.3, -0.24 0.67, -0.85 0.15 M-1.28 0.11 C-1.21 1.21, -0.12 2.94, 0.22 4.96 C0.57 6.98, -0.31 10.57, 0.8 12.21 C1.91 13.84, 4.41 14.75, 6.87 14.77 C9.33 14.79, 15.23 13.08, 15.53 12.33 C15.83 11.58, 10.35 11.95, 8.69 10.28 C7.04 8.61, 6.82 4.03, 5.59 2.29 C4.37 0.56, 2.25 0.38, 1.33 -0.11" stroke="#000000" stroke-width="1" fill="none"></path></g></g><g stroke-linecap="round"><g transform="translate(243.268749843019 199.2056724285867) rotate(0 -21.16892298089681 0.5040464835567491)"><path d="M0.76 0.62 C-6.48 0.57, -34.92 0.05, -42.31 -0.21 M-0.31 -0.09 C-7.77 0.03, -36.28 1.22, -43.09 1.22" stroke="#000000" stroke-width="1" fill="none"></path></g></g><g stroke-linecap="round"><g transform="translate(201.10921326831829 199.85052491379747) rotate(0 -0.35728751582462337 40.89649011251413)"><path d="M0.62 0.31 C0.57 13.74, 0.05 67.69, -0.21 81.34 M-0.51 -0.57 C-0.75 12.91, -1.6 68.36, -1.27 82.37" stroke="#000000" stroke-width="1" fill="none"></path></g></g><g stroke-linecap="round"><g transform="translate(201.07977235726446 281.90294943105346) rotate(0 28.92065255011528 -0.6193541463819656)"><path d="M0.31 -0.21 C9.62 -0.47, 47.09 -0.81, 56.62 -0.92 M-0.99 -1.37 C8.62 -1.55, 49.22 -0.09, 58.83 0.14" stroke="#000000" stroke-width="1" fill="none"></path></g></g><g stroke-linecap="round"><g transform="translate(258.90618823567127 281.96012261055284) rotate(0 -0.21078136689345683 -34.17541706795146)"><path d="M-0.21 -0.97 C-0.46 -12.6, -0.77 -57.93, -0.87 -69.49 M-1.78 1.14 C-1.71 -10.32, 0.8 -56.24, 1.36 -68.01" stroke="#000000" stroke-width="1" fill="none"></path></g></g><g stroke-linecap="round"><g transform="translate(243.29094837710034 199.8851200279512) rotate(0 7.08629524554317 6.549117971136184)"><path d="M-0.97 -0.92 C1.51 1.27, 12.59 10.39, 15.14 12.94 M0.73 1.21 C3.01 3.55, 11.47 12.16, 14.14 14.02" stroke="#000000" stroke-width="1" fill="none"></path></g></g><g stroke-linecap="round"><g transform="translate(209.26684252592588 246.84692098491087) rotate(0 21.63423596417715 11.348316433853824)" fill-rule="evenodd"><path d="M-7.6 -0.34 L55.21 0.37 L57.99 8.32 L55.4 20.05 L44.66 23.73 L-9.56 21.7 L-12.33 16.18 L-15.43 6.48 L-9.83 2.7 L-5.94 0.17" stroke="none" stroke-width="0" fill="#fff" fill-rule="evenodd"></path><path d="M-7.08 -0.1 C-2.74 -0.09, 9.91 -0.88, 19.67 -0.92 C29.43 -0.96, 45.42 -0.77, 51.47 -0.36 C57.52 0.06, 55.09 0.44, 55.98 1.59 C56.88 2.73, 56.35 4.17, 56.84 6.51 C57.34 8.85, 59.17 13.22, 58.96 15.6 C58.75 17.98, 56.8 19.63, 55.59 20.78 C54.38 21.94, 57.65 22.43, 51.7 22.53 C45.75 22.63, 29.43 21.59, 19.9 21.37 C10.37 21.15, -0.11 21.26, -5.5 21.2 C-10.89 21.14, -10.98 21.98, -12.43 21.02 C-13.89 20.05, -14.01 17.73, -14.24 15.41 C-14.46 13.08, -14.37 9.27, -13.78 7.06 C-13.19 4.86, -11.79 3.51, -10.7 2.18 C-9.61 0.84, -8.14 -0.78, -7.24 -0.94 M-5.36 -1.2 C-0.63 -0.98, 12.53 -0.18, 21.92 0.13 C31.31 0.44, 45.26 0.24, 50.99 0.67 C56.73 1.1, 55.08 1.68, 56.34 2.73 C57.61 3.78, 58.42 4.97, 58.58 6.98 C58.75 8.99, 57.77 12.72, 57.32 14.8 C56.87 16.89, 56.91 18.22, 55.87 19.48 C54.83 20.74, 56.84 21.75, 51.09 22.35 C45.34 22.96, 31.21 22.84, 21.39 23.09 C11.57 23.35, -2.21 24.01, -7.83 23.88 C-13.46 23.74, -11.07 23.77, -12.38 22.28 C-13.69 20.78, -15.51 17.53, -15.69 14.91 C-15.87 12.29, -14.25 8.64, -13.46 6.56 C-12.68 4.47, -11.96 3.2, -10.97 2.39 C-9.97 1.57, -8.05 2.16, -7.48 1.66" stroke="#000000" stroke-width="1" fill="none"></path></g></g><g transform="translate(221.76569202669486 249.0970959292772) rotate(0 10 10)"><text x="0" y="14" font-family="Virgil, Segoe UI Emoji" font-size="16.00818011104379px" fill="#000000" text-anchor="start" style="white-space: pre;" direction="ltr">JS</text></g><g stroke-linecap="round"><g transform="translate(207.23624881812918 213.38597325289857) rotate(0 15.55307556538503 0.13924451846310149)"><path d="M-0.89 -0.92 C4.6 -1, 26.57 -0.72, 31.99 -0.56 M0.85 1.21 C6.31 1.3, 26.31 0.65, 31.33 0.69" stroke="#000000" stroke-width="1" fill="none"></path></g></g><g stroke-linecap="round"><g transform="translate(207.12792496361305 219.63836940068722) rotate(0 19.641872540031045 -0.5922652617053927)"><path d="M-0.92 0.56 C5.8 0.74, 33.25 0.45, 40.21 0.21 M0.79 -0.2 C7.31 -0.33, 32.41 -1.83, 38.97 -1.8" stroke="#000000" stroke-width="1" fill="none"></path></g></g><g stroke-linecap="round"><g transform="translate(207.14954727473093 225.01332881222652) rotate(0 20.182196221792424 0.6954020564586472)"><path d="M0.56 -0.56 C7.53 -0.39, 34.42 -0.04, 40.98 0.07 M-0.61 1.76 C6.3 2.22, 32.98 1.69, 40.14 1.65" stroke="#000000" stroke-width="1" fill="none"></path></g></g><g stroke-linecap="round"><g transform="translate(206.72431539649585 231.8050909279218) rotate(0 20.139572945151826 -0.314821447189388)"><path d="M-0.56 0.21 C6.4 -0.02, 33.92 -1.01, 40.84 -0.85 M1.35 -0.72 C8.24 -0.87, 33.45 0.21, 39.93 0.24" stroke="#000000" stroke-width="1" fill="none"></path></g></g><g stroke-linecap="round"><g transform="translate(207.06121582263802 237.51167451387118) rotate(0 20.521006003840284 0.41575665696518627)"><path d="M0.21 0.07 C6.77 0.19, 32.96 0.09, 39.91 0.15 M-1.13 -0.93 C5.75 -0.55, 35.02 1.88, 42.18 1.77" stroke="#000000" stroke-width="1" fill="none"></path></g></g><g transform="translate(163.2133481777497 170.68274759591918) rotate(0 70.5 12.5)"><text x="0" y="18" font-family="Virgil, Segoe UI Emoji" font-size="20px" fill="#000000" text-anchor="start" style="white-space: pre;" direction="ltr">Service Worker</text></g></svg>